<?xml version="1.0" encoding="utf-8"?>
<!-- Generator: $$$/GeneralStr/196=Adobe Illustrator 27.6.0, SVG Export Plug-In . SVG Version: 6.00 Build 0)  -->
<svg version="1.1" id="Capa_1" xmlns="http://www.w3.org/2000/svg" xmlns:xlink="http://www.w3.org/1999/xlink" x="0px" y="0px"
	 viewBox="0 0 400 400" style="enable-background:new 0 0 400 400;" xml:space="preserve">
<g>
	<path d="M292.6,122.6c3.2,0,2.9-0.2-2.2-1.8c-3.2-0.9-7.2-2.3-8.8-3.1c-1.6-0.8-5.5-3.2-8.6-5.3c-4-2.8-5.3-3.3-4.5-1.8
		C271.2,115.9,285.2,122.8,292.6,122.6z"/>
	<path d="M261.5,344c-0.2-0.2-1.8,0.7-3.4,2c-4.9,4-16.3,9.3-30.9,14.4l-13.8,4.8l6.3,4.3c3.5,2.5,10.2,8.3,14.9,13.3
		c9.9,10.2,9.4,10.2,16.9-2.3c4.6-7.6,6.8-14.6,8.9-27.5C261.2,348.3,261.6,344.2,261.5,344z"/>
	<path d="M309.6,351.9l10.8,10.3l-3.4,4.3c-4,5.2-12.9,18.1-15.8,23.1c-1.1,1.9,4-2.7,11.3-10.2c7.3-7.5,14-15.1,14.9-16.8
		c1.6-3.1,1.5-3.3-6.5-10.3c-4.6-3.9-15.1-14-23.6-22.4c-8.5-8.5-16.2-16.7-17.3-18.3l-2-2.9l1.1,3.1
		C282.5,321.4,294.8,337.6,309.6,351.9z"/>
	<path d="M294.3,142c0.5-1.9,0.6-4.3,0.2-5.5c-0.6-1.8-1.6-1.2-6.2,3.5c-5.4,5.6-9.9,12.9-8.7,14.1c1.1,1.2,7.4-2.1,10.6-5.4
		C292,146.9,293.7,143.9,294.3,142z"/>
	<path d="M206.6,348.7c5.4-9.6,15.3-17.8,33.2-27.7c12.2-6.7,17.8-11.7,19.5-17.7c1.4-5.3,0.9-6.6-1.3-3.9
		c-2.6,3.1-18.3,14.6-27.6,20.1c-12.4,7.3-21.6,14.3-23.6,18.2c-0.9,1.8-1.6,5.5-1.6,8.3C205.4,350.3,205.5,350.7,206.6,348.7z"/>
	<path d="M83.5,348.3c-10.6,9.5-13,12.2-12.1,13.7c1.3,2.5,17.3,20.7,22.2,25.2c2,1.9,3.9,3.2,4.2,2.9c0.2-0.4-3.8-6.9-8.9-14.6
		l-9.4-13.8L91.3,350c12.4-12.4,20.3-22.3,25.4-31.6c1.8-3.1,2.8-5.5,2.6-5.5c-0.4,0-2.8,2.8-5.6,6.1
		C107.9,326,102.3,331.5,83.5,348.3z"/>
	<path d="M233.4,43.6c0-1.6-2.2-0.5-3.8,1.9c-2.6,4-5.8,10.3-5.2,10.3C225.2,55.8,233.4,44.6,233.4,43.6z"/>
	<path d="M376,120.9c-26.3-54.5-78.6-95.8-138.8-109.7c-7.7-1.9-15.4-2.5-31.9-2.8c-23.7-0.4-24.8-0.4-41.2,3.1
		C95.7,25,36.2,78,13.9,144.8c-8.7,26.1-11.9,53-9.6,80.3c1.8,20.5,3.8,30.5,9.6,48c4.9,15,8.9,23.5,18,38.6
		c10.2,16.9,30.9,41.2,27.3,32.2c-0.5-1.2-0.1-1.6,0.7-1.3c0.8,0.2,2.7-0.5,4.1-1.5c8.8-6.8,17.8-15,29.8-26.9
		c16.7-16.8,20.4-23.2,20.3-35.9c-0.1-9.6-2.5-15.5-10.1-24.9c-14.7-17.7-37.4-27.9-60.6-27.1c-5.9,0.2-10.8,0-10.8-0.4
		c0-1.1,18.7-16.9,25.8-21.9c9.7-6.8,18.7-11.6,31.9-17l11.9-4.9l-0.2-11.5c-0.2-9.5-0.7-12.4-3.4-18.2c-2.3-5.3-3.2-9-3.5-17.6
		c-0.5-9.6-0.7-10.8-2.7-10.8c-2.8,0-8.8-5.6-9.9-9.2c-0.8-2.7-0.8-2.8,2.2-0.7c2.5,1.5,4.7,1.9,10.1,1.3c9.2-0.8,10.4-1.8,6-4.5
		c-7-4.3-9.3-12.4-5.9-21.8c2.1-5.8,4.5-8.7,14.4-18.5c6.6-6.5,15.8-14.1,20.5-17c9.2-5.8,13.5-8.9,25.1-18.8
		c14.8-12.6,27.3-18.4,42-19.6c14.4-1.2,28.8,4.9,47.3,20.5c5.3,4.5,15,11.6,21.8,16.1c21,13.6,38,32.2,39.3,42.8
		c0.8,6.6-2.7,13.4-8.6,16.5l-3.9,2l4.3,1.4c4.2,1.4,13.1,1.1,17.3-0.6c1.2-0.5,2-0.4,2,0.4c0,2.5-6,8.3-9.3,9
		c-3.3,0.7-3.3,0.8-3.9,11c-0.5,7.5-1.4,12.1-3.6,17.3c-2.5,5.6-3.2,9.2-3.4,18.4l-0.4,11.4l6.5,2.5c10.7,4,27.8,12.9,37,19.1
		c9.4,6.5,22.7,17.5,25.5,21.2c1.8,2.3,1.6,2.3-8.3,2c-21.8-0.8-41.5,6.8-56.2,21.7c-11.3,11.4-14.9,18.9-14.8,30.3
		c0,10.4,3.5,18.2,12.9,29c9.5,10.9,33.8,32.3,35.9,31.7c0.6-0.1,0.8,0.1,0.5,0.7c-0.4,0.6,1.1,2.2,2.9,3.8l3.6,2.6l6.3-6.8
		c3.5-3.9,6.3-7.3,6.3-7.6s1.2-2,2.5-3.5c4.2-4.7,14.6-21,19.1-30c15.1-30.2,21.7-62.3,20.3-98.2C395,171.9,388.7,146.9,376,120.9z
		 M70.2,330.5c0.7,0,1.3,0.5,1.3,1.2c0,0.6-0.2,1.2-0.5,1.2c-0.4,0-0.9-0.6-1.3-1.2C69.3,330.9,69.6,330.5,70.2,330.5z M60.4,341
		c-0.4,0-0.9-0.6-1.3-1.2c-0.4-0.7-0.1-1.2,0.5-1.2c0.7,0,1.3,0.5,1.3,1.2C60.9,340.4,60.6,341,60.4,341z M59.1,333
		c2,0,2.8,0.2,2.1,0.6c-0.8,0.2-2.5,0.2-3.5,0C56.5,333.3,57.2,333,59.1,333z M341,340.6c-0.4,0.4-1.4,0.5-2.2,0.1
		c-0.9-0.4-0.6-0.7,0.7-0.7C340.8,339.9,341.5,340.2,341,340.6z M345,336.3c-0.7,0-1.3-0.6-1.3-1.2c0-0.7,0.2-1.2,0.5-1.2
		c0.4,0,0.9,0.5,1.3,1.2C345.8,335.7,345.6,336.3,345,336.3z"/>
	<path d="M282.1,186.1c3.9-3.2,5.3-8,5.3-17.6c0-5.2-0.4-9.4-0.8-9.3c-0.6,0-2.5,1.5-4.3,3.3c-3.3,3.3-3.3,3.6-2.3,10.2
		c0.6,3.9,0.8,8.7,0.7,10.9C280.2,187.3,280.4,187.5,282.1,186.1z"/>
	<path d="M191.3,336.3c-2.2-3.2-12.4-10.7-29.7-21.7c-6-3.9-13.7-9.6-17.3-12.9l-6.3-5.9l0.9,4.1c1.6,8.2,5.4,11.9,21.8,21.6
		c14.9,8.9,25,17.3,31.5,25.9l2.6,3.5l-0.8-5.9C193.6,341.9,192.3,338,191.3,336.3z"/>
	<path d="M137.9,347.7c2.5,17,7.9,31.6,14.9,39.7l3.9,4.5l6.9-8c3.9-4.3,10.1-10.2,13.8-13.1c3.8-2.9,6.5-5.8,5.9-6.1
		c-0.5-0.5-4-1.8-7.7-2.9c-3.8-1.1-11.4-4.1-16.9-6.7c-5.6-2.6-12.8-6.6-16-8.8l-5.6-4.1L137.9,347.7z"/>
	<path d="M108.9,122.1c6.3-0.7,12.3-3.2,17.7-7.5c4-3.2,2.6-4-1.6-1.1c-1.8,1.4-7.6,4-12.9,5.9l-9.5,3.4L108.9,122.1z"/>
	<path d="M222.4,166.7l3.3,2.7c1.9,1.4,4.7,2.6,6.5,2.6c3.4,0,10.7-4,10.7-5.9c0-1.3-11.3-1.4-17-0.1L222.4,166.7z"/>
	<path d="M154.8,165.9c0,1.6,3.9,4.7,7,5.5c3.3,0.8,8.6-0.8,11.1-3.4c1.4-1.4,1.1-1.8-2-2.3C165.7,164.6,154.8,164.9,154.8,165.9z"
		/>
	<path d="M118.4,188.5c0.4,0,0.6-5.3,0.6-11.7v-11.9l-3.6-2.8l-3.6-2.8l-0.7,6.1c-0.5,3.4-0.2,8.1,0.2,10.6
		C112.2,180,117,188.5,118.4,188.5z"/>
	<path d="M115.9,154.4c2.2,1.2,2.5,0.9,2.5-2.1c0-3.5-2.5-7.4-8.7-14c-2-2.1-4-3.9-4.5-3.9c-1.4,0-2.2,4.3-1.4,7.5
		C104.5,145,111.3,151.8,115.9,154.4z"/>
	<path d="M181.2,233.1c-4.5,0-4.5-0.1-1.2,12.9l1.3,5.3l2-7.9c1.1-4.3,2-8.5,2-9.2C185.3,233.6,183.4,233.1,181.2,233.1z"/>
	<path d="M260.6,196.1c7.2-5.3,9.6-10.1,8.8-18.2c-0.4-3.8-1.8-10.7-3.3-15.4c-2.2-6.9-3.9-9.9-8.3-14.3c-6.1-6.1-9.2-6.8-11.9-2.7
		c-1.1,1.5-2.7,3.6-3.9,4.7c-2.5,2.5-2.1,2.7,8.1,7.7c4.6,2.2,8.6,4.7,8.7,5.4c0.2,0.6-1.1,1.6-2.8,2.3c-2,0.7-4.2,3.1-6.1,6.8
		c-4.5,8.5-8.1,10.7-16.9,10.4l-7.3-0.2l2.9,2.2c1.6,1.3,3.3,2.3,3.9,2.3c1.2,0,1.1,2.3-0.2,2.3c-2.3,0-22.8-14.8-25.1-18.2
		c-3.3-4.7-4.2-5.3-8.7-5.3c-2.9,0-4.5,0.9-7.3,4.6c-5.2,6.6-25,20.3-26.6,18.5c-0.4-0.2,0.9-2.2,2.7-4.5c2.7-3.3,2.9-3.8,0.9-2.9
		c-9,3.5-15.7,0.5-20.4-9.5c-2-4-3.8-6.2-5.4-6.5c-1.4-0.2-2.3-1.2-2.3-2.6c0-1.6,2.3-3.5,8.2-6.5c4.6-2.3,8.5-4.3,8.7-4.6
		c0.4-0.1-1.1-2.5-3.1-5.2c-2-2.7-4-5-4.6-5.3c-0.6-0.1-3.8,1.8-7,4.2c-6.5,4.9-9.5,10.6-12.8,23.1c-3.5,13.4-1.6,18.7,9.4,27.5
		c10.3,8.2,15.6,14.4,16.5,19.5c0.9,5.4,0,23-1.5,25.7c-0.9,1.5-1.3,0.6-1.9-4.3c-0.8-8.1-6.2-18.9-12.4-24.9
		c-2.6-2.6-5-4.5-5.3-4.1c-0.4,0.2,1.6,4.9,4.3,10.3c4.6,9.3,4.9,10.6,5.2,20.5c0.1,5.9,0.2,11.6,0.2,12.7c0.1,1.1,3.2,6.3,6.8,11.7
		c4,5.9,8.5,14.4,11.1,21.4c7.2,18.8,16.2,25.5,26.8,20.1c5.4-2.8,7.5-8,7.5-19c0.1-5.3-0.2-9.9-0.7-10.3s-2.7,0.6-5,2.5l-4.2,3.2
		l0.8-3.4c0.5-1.9,1.2-4.7,1.6-6.3c0.9-3.5,5-5.9,10.2-5.9c6.6,0,9.4,1.8,11.5,7.6c2.3,5.9,1.8,7.7-1.4,5c-5.5-4.7-7.4-3.1-7.4,6.7
		c0,12.1,6.6,21.7,14.9,21.7c9.2,0,15.4-6.7,21-22.3c1.6-4.8,6.2-13.5,10-19.2c3.9-5.8,6.9-11,7-11.7c0-0.7,0.2-6.8,0.2-13.6
		c0.2-12.1,0.4-12.4,5.4-22.3c5.3-10.1,5-10.4-2.6-3.6c-5.6,5-11.1,18.2-11.5,27.1l-0.1,4.1l-1.5-4.7c-2.1-6.5-2.2-22.8-0.1-27.7
		C246.2,208.9,253,201.8,260.6,196.1z M226.2,273.3c-2.8,8.7-4.6,11-4.6,5.9c0-6.1-2.6-12.6-6.5-16.4s-4-3.9-14.8-3.9
		c-8.7,0-11.7,0.5-14.7,2.2c-4.7,2.9-7.5,9-7.5,16.8l-0.1,6.2l-2.5-4.7c-4.3-8.3-5.9-16.4-8.3-47.2c-0.4-3.2,0.2-4.1,3.3-5.6
		c5.2-2.6,12.1-2.1,19.1,1.2c3.5,1.6,7.5,2.9,9,2.9c1.5,0,5.5-1.3,9-2.9c7.2-3.3,14.7-3.8,19.7-1.2c3.3,1.6,3.5,2.3,3.5,8.1
		C231.1,246.6,228.7,265.3,226.2,273.3z M231.2,221.3c-1.3-1.6-3.6-5.6-5-8.9l-2.7-6l-4.8,3.6c-2.7,2-6.3,5.9-8.1,8.7
		c-1.8,2.7-4.9,6.3-7,8c-3.8,2.8-4.1,2.9-7.5,1.1c-2-0.9-4.5-3.5-5.5-5.5c-1.1-2.1-4.9-6.7-8.5-10.1l-6.5-6.3l-2.2,5.6
		c-1.2,3.2-3.2,7-4.6,8.7l-2.3,2.9l0.7-5.6c0.9-6.8,2-9.4,8.6-20.5c4.2-7,5.5-8.5,8.1-8.5c3.4,0,8.6,4.1,8.6,6.8
		c0,1.4-0.7,1.2-2.7-0.7c-3.4-3.2-6.2-3.3-7.9-0.4c-1.8,3.3-1.6,3.5,3.5,5.5c3.5,1.4,5.6,3.4,8.5,8.2c2.1,3.4,4.5,6.6,5.3,6.8
		c0.8,0.4,2.9-2,4.9-5.5c2.3-4,5.2-7,8.2-8.8c4.5-2.5,4.7-2.8,3.4-5.5c-1.5-3.5-2.9-3.6-6.8-0.6c-5,4-5.4,2.6-0.6-2.3
		c2.5-2.6,5-4.7,5.5-4.7c1.5,0,5.4,4.3,8,9c1.3,2.5,3.8,6.2,5.3,8.5c2.7,3.8,3.9,6.9,5.8,16l0.8,3.5L231.2,221.3z"/>
	<path d="M138.3,86.9c-2.2-0.4-8.3,0.1-13.5,1.2c-10.8,2-18.2,2.3-18.2,0.6c0-2.2-2.2-1.2-3.1,1.4c-0.6,1.9-0.1,3.2,1.9,4.7
		c3.4,2.7,8.1,2.7,20.2-0.2c9.3-2.2,18.5-3.1,18.5-1.8c0,0.4-0.7,1.9-1.6,3.3c-2.2,3.5-3.6,40.3-1.5,38.6c2.6-2,7.9-2.7,12.3-1.4
		c2.6,0.7,7.9,4.1,12.7,8.2c8.1,7.2,15.4,11.7,18.5,11.7c0.9,0,2.8-1.4,4.2-3.3c2.2-2.7,2.5-4.1,1.9-10.2c-0.5-4.1-0.4-6.5,0.4-5.9
		c2,2.1,4.8,12.3,4.8,17.4v5l4-0.5c4-0.5,4.1-0.5,4.1-6.7c0-5.2,2.6-14.7,4-14.7c0.2,0,0.2,2.8-0.1,6.2c-0.5,5.4-0.1,6.7,2.3,9.5
		c4.1,4.8,8,3.5,19.8-6.5c5.4-4.6,11-8.8,12.6-9.4c3.6-1.4,10.4-1.3,13.4,0.2c1.3,0.7,2.5,1.1,2.7,0.8s-0.1-9.2-0.7-19.7
		c-0.9-14-1.8-19.7-2.9-20.7c-4.3-3.5,3.4-3.6,16.9-0.5c16.5,4,23.7,2.5,23.7-4.8c0-3.9-0.6-4.2-3.3-1.5c-2,2.1-6.9,1.9-21.4-0.7
		c-4.2-0.7-9.4-1.1-11.4-0.7c-5,0.7-4.9,0.1,0.8-2.8c5.3-2.7,17.5-5.8,23.5-6c6.5-0.1,0.7-2-6.6-2.1c-12.6-0.2-31.5,5.4-43.1,12.8
		c-3.1,1.9-5.9,3.5-6.2,3.5s1.1-2.3,3.2-5.3c5.6-7.7,14.9-16.2,22.8-20.7c7.3-4.1,7.2-5.8-0.2-3.4c-11,3.5-23.2,14.6-34.2,30.7
		c-7.2,10.6-12.2,13.8-21,13.8c-8,0-11.9-2.9-20.3-15.1c-8.2-12-19.5-23.2-27.2-26.9c-5.2-2.6-12.7-4.6-12.7-3.4
		c0,0.4,3.1,2.3,6.8,4.5c7.5,4.2,20.8,16.4,24.3,22.4l2.2,3.9l-3.4-2.3c-15.1-9.9-37.6-16.2-50.7-14.1l-5.6,0.9l8.2,1.4
		c8.7,1.5,15.4,3.9,19.7,7C142.4,87.6,142.3,87.6,138.3,86.9z"/>
	<path d="M217.6,233.1c-4.3,0-4.3,0-3.6,3.9c0.4,2.1,1.4,6.2,2.2,9.2l1.6,5.2l1.4-6.5c0.7-3.5,1.6-7.6,2-9
		C221.9,233.3,221.6,233.1,217.6,233.1z"/>
	<path d="M211.8,29.4c-11-3.3-23.4-1.5-32.4,4.7c-7.4,5-8.7,11.6-4.3,21.7l1.8,4.1l-0.1-8c0-6.1,0.5-8.7,2.2-11.1
		c2.5-3.3,11.9-8.8,13.4-7.9c0.6,0.4,0.5,2.6-0.1,4.9c-1.4,6.2-1.3,14,0.4,24.6l1.4,9.2l0.9-11.1c1.1-12.6,3.9-25.1,6.2-27
		c0.9-0.7,3.1-1.2,4.9-0.9c3.8,0.5,3.9,0.9,1.1,13.3c-1.1,4.5-1.8,11.9-1.8,16.4l0.1,8.2l1.5-7.6c2-9.7,4.9-18.3,7.9-23.2
		c2.1-3.5,2.9-3.9,6.1-3.3l3.6,0.7l-3.5-2.9C219.2,32.5,215,30.4,211.8,29.4z"/>
</g>
</svg>
