<?xml version="1.0" encoding="utf-8"?>
<!-- Generator: $$$/GeneralStr/196=Adobe Illustrator 27.6.0, SVG Export Plug-In . SVG Version: 6.00 Build 0)  -->
<svg version="1.1" id="Capa_1" xmlns="http://www.w3.org/2000/svg" xmlns:xlink="http://www.w3.org/1999/xlink" x="0px" y="0px"
	 viewBox="0 0 334.6 334.6" style="enable-background:new 0 0 334.6 334.6;" xml:space="preserve">
<style type="text/css">
	.st0{fill:#FFFFFF;}
</style>
<path class="st0" d="M246.2,98.3c2.7,0,2.5-0.2-1.9-1.5c-2.7-0.8-6.1-2-7.5-2.6c-1.4-0.7-4.7-2.7-7.3-4.5c-3.4-2.4-4.5-2.8-3.8-1.5
	C228,92.6,239.9,98.5,246.2,98.3z"/>
<path class="st0" d="M219.7,286.9c-0.2-0.2-1.5,0.6-2.9,1.7c-4.2,3.4-13.9,7.9-26.3,12.3l-11.8,4.1l5.4,3.7c3,2.1,8.7,7.1,12.7,11.3
	c8.4,8.7,8,8.7,14.4-2c3.9-6.5,5.8-12.4,7.6-23.4C219.5,290.6,219.8,287.1,219.7,286.9z"/>
<path class="st0" d="M260.7,293.7l9.2,8.8l-2.9,3.7c-3.4,4.4-11,15.4-13.5,19.7c-0.9,1.6,3.4-2.3,9.6-8.7
	c6.2-6.4,11.9-12.9,12.7-14.3c1.4-2.6,1.3-2.8-5.5-8.8c-3.9-3.3-12.9-11.9-20.1-19.1c-7.2-7.2-13.8-14.2-14.7-15.6l-1.7-2.5l0.9,2.6
	C237.6,267.7,248.1,281.5,260.7,293.7z"/>
<path class="st0" d="M247.7,114.8c0.4-1.6,0.5-3.7,0.2-4.7c-0.5-1.5-1.4-1-5.3,3c-4.6,4.8-8.4,11-7.4,12c0.9,1,6.3-1.8,9-4.6
	C245.7,119,247.2,116.4,247.7,114.8z"/>
<path class="st0" d="M173,290.9c4.6-8.2,13-15.2,28.3-23.6c10.4-5.7,15.2-10,16.6-15.1c1.2-4.5,0.8-5.6-1.1-3.3
	c-2.2,2.6-15.6,12.4-23.5,17.1c-10.6,6.2-18.4,12.2-20.1,15.5c-0.8,1.5-1.4,4.7-1.4,7.1C171.9,292.3,172,292.6,173,290.9z"/>
<path class="st0" d="M68.1,290.6c-9,8.1-11.1,10.4-10.3,11.7c1.1,2.1,14.7,17.6,18.9,21.5c1.7,1.6,3.3,2.7,3.6,2.5
	c0.2-0.3-3.2-5.9-7.6-12.4l-8-11.8l10-10.1c10.6-10.6,17.3-19,21.6-26.9c1.5-2.6,2.4-4.7,2.2-4.7c-0.3,0-2.4,2.4-4.8,5.2
	C88.9,271.6,84.1,276.3,68.1,290.6z"/>
<path class="st0" d="M195.8,31c0-1.4-1.9-0.4-3.2,1.6c-2.2,3.4-4.9,8.8-4.4,8.8C188.8,41.4,195.8,31.8,195.8,31z"/>
<path class="st0" d="M317.3,96.8c-22.4-46.4-67-81.6-118.3-93.5c-6.6-1.6-13.1-2.1-27.2-2.4c-20.2-0.3-21.1-0.3-35.1,2.6
	C78.5,15.1,27.8,60.3,8.8,117.2c-7.4,22.2-10.1,45.2-8.2,68.4c1.5,17.5,3.2,26,8.2,40.9c4.2,12.8,7.6,20,15.3,32.9
	c8.7,14.4,26.3,35.1,23.3,27.4c-0.4-1-0.1-1.4,0.6-1.1c0.7,0.2,2.3-0.4,3.5-1.3c7.5-5.8,15.2-12.8,25.4-22.9
	c14.2-14.3,17.4-19.8,17.3-30.6c-0.1-8.2-2.1-13.2-8.6-21.2c-12.5-15.1-31.9-23.8-51.6-23.1c-5,0.2-9.2,0-9.2-0.3
	c0-0.9,15.9-14.4,22-18.7c8.3-5.8,15.9-9.9,27.2-14.5l10.1-4.2l-0.2-9.8c-0.2-8.1-0.6-10.6-2.9-15.5c-2-4.5-2.7-7.7-3-15
	c-0.4-8.2-0.6-9.2-2.3-9.2c-2.4,0-7.5-4.8-8.4-7.8c-0.7-2.3-0.7-2.4,1.9-0.6c2.1,1.3,4,1.6,8.6,1.1c7.8-0.7,8.9-1.5,5.1-3.8
	c-6-3.7-7.9-10.6-5-18.6c1.8-4.9,3.8-7.4,12.3-15.8c5.6-5.5,13.5-12,17.5-14.5c7.8-4.9,11.5-7.6,21.4-16
	c12.6-10.7,23.3-15.7,35.8-16.7c12.3-1,24.5,4.2,40.3,17.5c4.5,3.8,12.8,9.9,18.6,13.7c17.9,11.6,32.4,27.4,33.5,36.5
	C258,80,255,85.8,250,88.5l-3.3,1.7l3.7,1.2c3.6,1.2,11.2,0.9,14.7-0.5c1-0.4,1.7-0.3,1.7,0.3c0,2.1-5.1,7.1-7.9,7.7
	s-2.8,0.7-3.3,9.4c-0.4,6.4-1.2,10.3-3.1,14.7c-2.1,4.8-2.7,7.8-2.9,15.7l-0.3,9.7l5.5,2.1c9.1,3.4,23.7,11,31.5,16.3
	c8,5.5,19.3,14.9,21.7,18.1c1.5,2,1.4,2-7.1,1.7c-18.6-0.7-35.4,5.8-47.9,18.5c-9.6,9.7-12.7,16.1-12.6,25.8c0,8.9,3,15.5,11,24.7
	c8.1,9.3,28.8,27.5,30.6,27c0.5-0.1,0.7,0.1,0.4,0.6c-0.3,0.5,0.9,1.9,2.5,3.2l3.1,2.2l5.4-5.8c3-3.3,5.4-6.2,5.4-6.5s1-1.7,2.1-3
	c3.6-4,12.4-17.9,16.3-25.6c12.9-25.7,18.5-53.1,17.3-83.7C333.5,140.3,328.1,119,317.3,96.8z M56.7,275.4c0.6,0,1.1,0.4,1.1,1
	c0,0.5-0.2,1-0.4,1c-0.3,0-0.8-0.5-1.1-1C56,275.8,56.2,275.4,56.7,275.4z M48.4,284.4c-0.3,0-0.8-0.5-1.1-1c-0.3-0.6-0.1-1,0.4-1
	c0.6,0,1.1,0.4,1.1,1C48.8,283.9,48.6,284.4,48.4,284.4z M47.3,277.6c1.7,0,2.4,0.2,1.8,0.5c-0.7,0.2-2.1,0.2-3,0
	C45.1,277.8,45.7,277.6,47.3,277.6z M287.5,284c-0.3,0.3-1.2,0.4-1.9,0.1c-0.8-0.3-0.5-0.6,0.6-0.6
	C287.3,283.4,287.9,283.7,287.5,284z M290.9,280.4c-0.6,0-1.1-0.5-1.1-1c0-0.6,0.2-1,0.4-1c0.3,0,0.8,0.4,1.1,1
	C291.6,279.9,291.4,280.4,290.9,280.4z"/>
<path class="st0" d="M237.3,152.4c3.3-2.7,4.5-6.8,4.5-15c0-4.4-0.3-8-0.7-7.9c-0.5,0-2.1,1.3-3.7,2.8c-2.8,2.8-2.8,3.1-2,8.7
	c0.5,3.3,0.7,7.4,0.6,9.3C235.7,153.4,235.8,153.6,237.3,152.4z"/>
<path class="st0" d="M159.9,280.4c-1.9-2.7-10.6-9.1-25.3-18.5c-5.1-3.3-11.7-8.2-14.7-11l-5.4-5l0.8,3.5c1.4,7,4.6,10.1,18.6,18.4
	c12.7,7.6,21.3,14.7,26.8,22.1l2.2,3l-0.7-5C161.9,285.1,160.8,281.8,159.9,280.4z"/>
<path class="st0" d="M114.4,290.1c2.1,14.5,6.7,26.9,12.7,33.8l3.3,3.8l5.9-6.8c3.3-3.7,8.6-8.7,11.8-11.2s5.5-4.9,5-5.2
	c-0.4-0.4-3.4-1.5-6.6-2.5c-3.2-0.9-9.7-3.5-14.4-5.7c-4.8-2.2-10.9-5.6-13.6-7.5l-4.8-3.5L114.4,290.1z"/>
<path class="st0" d="M89.7,97.9c5.4-0.6,10.5-2.7,15.1-6.4c3.4-2.7,2.2-3.4-1.4-0.9c-1.5,1.2-6.5,3.4-11,5l-8.1,2.9L89.7,97.9z"/>
<path class="st0" d="M186.4,135.9l2.8,2.3c1.6,1.2,4,2.2,5.5,2.2c2.9,0,9.1-3.4,9.1-5c0-1.1-9.6-1.2-14.5-0.1L186.4,135.9z"/>
<path class="st0" d="M128.8,135.2c0,1.4,3.3,4,6,4.7c2.8,0.7,7.3-0.7,9.5-2.9c1.2-1.2,0.9-1.5-1.7-2
	C138.1,134.1,128.8,134.3,128.8,135.2z"/>
<path class="st0" d="M97.8,154.4c0.3,0,0.5-4.5,0.5-10v-10.1l-3.1-2.4l-3.1-2.4l-0.6,5.2c-0.4,2.9-0.2,6.9,0.2,9
	C92.5,147.2,96.6,154.4,97.8,154.4z"/>
<path class="st0" d="M95.7,125.4c1.9,1,2.1,0.8,2.1-1.8c0-3-2.1-6.3-7.4-11.9c-1.7-1.8-3.4-3.3-3.8-3.3c-1.2,0-1.9,3.7-1.2,6.4
	C86,117.4,91.8,123.2,95.7,125.4z"/>
<path class="st0" d="M151.3,192.4c-3.8,0-3.8-0.1-1,11l1.1,4.5l1.7-6.7c0.9-3.7,1.7-7.2,1.7-7.8
	C154.8,192.9,153.2,192.4,151.3,192.4z"/>
<path class="st0" d="M219,160.9c6.1-4.5,8.2-8.6,7.5-15.5c-0.3-3.2-1.5-9.1-2.8-13.1c-1.9-5.9-3.3-8.4-7.1-12.2
	c-5.2-5.2-7.8-5.8-10.1-2.3c-0.9,1.3-2.3,3.1-3.3,4c-2.1,2.1-1.8,2.3,6.9,6.6c3.9,1.9,7.3,4,7.4,4.6c0.2,0.5-0.9,1.4-2.4,2
	c-1.7,0.6-3.6,2.6-5.2,5.8c-3.8,7.2-6.9,9.1-14.4,8.9l-6.2-0.2l2.5,1.9c1.4,1.1,2.8,2,3.3,2c1,0,0.9,2-0.2,2
	c-2,0-19.4-12.6-21.4-15.5c-2.8-4-3.6-4.5-7.4-4.5c-2.5,0-3.8,0.8-6.2,3.9c-4.4,5.6-21.3,17.3-22.7,15.8c-0.3-0.2,0.8-1.9,2.3-3.8
	c2.3-2.8,2.5-3.2,0.8-2.5c-7.7,3-13.4,0.4-17.4-8.1c-1.7-3.4-3.2-5.3-4.6-5.5c-1.2-0.2-2-1-2-2.2c0-1.4,2-3,7-5.5
	c3.9-2,7.2-3.7,7.4-3.9c0.3-0.1-0.9-2.1-2.6-4.4c-1.7-2.3-3.4-4.3-3.9-4.5c-0.5-0.1-3.2,1.5-6,3.6c-5.5,4.2-8.1,9-10.9,19.7
	c-3,11.4-1.4,15.9,8,23.4c8.8,7,13.3,12.3,14.1,16.6c0.8,4.6,0,19.6-1.3,21.9c-0.8,1.3-1.1,0.5-1.6-3.7c-0.7-6.9-5.3-16.1-10.6-21.2
	c-2.2-2.2-4.3-3.8-4.5-3.5c-0.3,0.2,1.4,4.2,3.7,8.8c3.9,7.9,4.2,9,4.4,17.5c0.1,5,0.2,9.9,0.2,10.8c0.1,0.9,2.7,5.4,5.8,10
	c3.4,5,7.2,12.3,9.5,18.2c6.1,16,13.8,21.7,22.8,17.1c4.6-2.4,6.4-6.8,6.4-16.2c0.1-4.5-0.2-8.4-0.6-8.8s-2.3,0.5-4.3,2.1l-3.6,2.7
	l0.7-2.9c0.4-1.6,1-4,1.4-5.4c0.8-3,4.3-5,8.7-5c5.6,0,8,1.5,9.8,6.5c2,5,1.5,6.6-1.2,4.3c-4.7-4-6.3-2.6-6.3,5.7
	c0,10.3,5.6,18.5,12.7,18.5c7.8,0,13.1-5.7,17.9-19c1.4-4.1,5.3-11.5,8.5-16.4c3.3-4.9,5.9-9.4,6-10c0-0.6,0.2-5.8,0.2-11.6
	c0.2-10.3,0.3-10.6,4.6-19c4.5-8.6,4.3-8.9-2.2-3.1c-4.8,4.3-9.5,15.5-9.8,23.1l-0.1,3.5l-1.3-4c-1.8-5.5-1.9-19.4-0.1-23.6
	C206.7,171.8,212.5,165.8,219,160.9z M189.7,226.7c-2.4,7.4-3.9,9.4-3.9,5c0-5.2-2.2-10.7-5.5-14s-3.4-3.3-12.6-3.3
	c-7.4,0-10,0.4-12.5,1.9c-4,2.5-6.4,7.7-6.4,14.3l-0.1,5.3l-2.1-4c-3.7-7.1-5-14-7.1-40.2c-0.3-2.7,0.2-3.5,2.8-4.8
	c4.4-2.2,10.3-1.8,16.3,1c3,1.4,6.4,2.5,7.7,2.5s4.7-1.1,7.7-2.5c6.1-2.8,12.5-3.2,16.8-1c2.8,1.4,3,2,3,6.9
	C193.8,203.9,191.8,219.9,189.7,226.7z M193.9,182.4c-1.1-1.4-3.1-4.8-4.3-7.6l-2.3-5.1l-4.1,3.1c-2.3,1.7-5.4,5-6.9,7.4
	c-1.5,2.3-4.2,5.4-6,6.8c-3.2,2.4-3.5,2.5-6.4,0.9c-1.7-0.8-3.8-3-4.7-4.7c-0.9-1.8-4.2-5.7-7.2-8.6l-5.5-5.4l-1.9,4.8
	c-1,2.7-2.7,6-3.9,7.4l-2,2.5l0.6-4.8c0.8-5.8,1.7-8,7.3-17.5c3.6-6,4.7-7.2,6.9-7.2c2.9,0,7.3,3.5,7.3,5.8c0,1.2-0.6,1-2.3-0.6
	c-2.9-2.7-5.3-2.8-6.7-0.3c-1.5,2.8-1.4,3,3,4.7c3,1.2,4.8,2.9,7.2,7c1.8,2.9,3.8,5.6,4.5,5.8c0.7,0.3,2.5-1.7,4.2-4.7
	c2-3.4,4.4-6,7-7.5c3.8-2.1,4-2.4,2.9-4.7c-1.3-3-2.5-3.1-5.8-0.5c-4.3,3.4-4.6,2.2-0.5-2c2.1-2.2,4.3-4,4.7-4
	c1.3,0,4.6,3.7,6.8,7.7c1.1,2.1,3.2,5.3,4.5,7.2c2.3,3.2,3.3,5.9,4.9,13.6l0.7,3L193.9,182.4z"/>
<path class="st0" d="M114.8,67.9c-1.9-0.3-7.1,0.1-11.5,1c-9.2,1.7-15.5,2-15.5,0.5c0-1.9-1.9-1-2.6,1.2c-0.5,1.6-0.1,2.7,1.6,4
	c2.9,2.3,6.9,2.3,17.2-0.2c7.9-1.9,15.8-2.6,15.8-1.5c0,0.3-0.6,1.6-1.4,2.8c-1.9,3-3.1,34.3-1.3,32.9c2.2-1.7,6.7-2.3,10.5-1.2
	c2.2,0.6,6.7,3.5,10.8,7c6.9,6.1,13.1,10,15.8,10c0.8,0,2.4-1.2,3.6-2.8c1.9-2.3,2.1-3.5,1.6-8.7c-0.4-3.5-0.3-5.5,0.3-5
	c1.7,1.8,4.1,10.5,4.1,14.8v4.3l3.4-0.4c3.4-0.4,3.5-0.4,3.5-5.7c0-4.4,2.2-12.5,3.4-12.5c0.2,0,0.2,2.4-0.1,5.3
	c-0.4,4.6-0.1,5.7,2,8.1c3.5,4.1,6.8,3,16.9-5.5c4.6-3.9,9.4-7.5,10.7-8c3.1-1.2,8.9-1.1,11.4,0.2c1.1,0.6,2.1,0.9,2.3,0.7
	s-0.1-7.8-0.6-16.8c-0.8-11.9-1.5-16.8-2.5-17.6c-3.7-3,2.9-3.1,14.4-0.4c14.1,3.4,20.2,2.1,20.2-4.1c0-3.3-0.5-3.6-2.8-1.3
	c-1.7,1.8-5.9,1.6-18.2-0.6c-3.6-0.6-8-0.9-9.7-0.6c-4.3,0.6-4.2,0.1,0.7-2.4c4.5-2.3,14.9-4.9,20-5.1c5.5-0.1,0.6-1.7-5.6-1.8
	c-10.7-0.2-26.8,4.6-36.7,10.9c-2.6,1.6-5,3-5.3,3s0.9-2,2.7-4.5c4.8-6.6,12.7-13.8,19.4-17.6c6.2-3.5,6.1-4.9-0.2-2.9
	c-9.4,3-19.8,12.4-29.1,26.2c-6.1,9-10.4,11.8-17.9,11.8c-6.8,0-10.1-2.5-17.3-12.9c-7-10.2-16.6-19.8-23.2-22.9
	c-4.4-2.2-10.8-3.9-10.8-2.9c0,0.3,2.6,2,5.8,3.8c6.4,3.6,17.7,14,20.7,19.1l1.9,3.3l-2.9-2c-12.9-8.4-32-13.8-43.2-12l-4.8,0.8
	l7,1.2c7.4,1.3,13.1,3.3,16.8,6C118.3,68.5,118.2,68.5,114.8,67.9z"/>
<path class="st0" d="M182.3,192.4c-3.7,0-3.7,0-3.1,3.3c0.3,1.8,1.2,5.3,1.9,7.8l1.4,4.4l1.2-5.5c0.6-3,1.4-6.5,1.7-7.7
	C186,192.6,185.7,192.4,182.3,192.4z"/>
<path class="st0" d="M177.4,18.9c-9.4-2.8-19.9-1.3-27.6,4c-6.3,4.3-7.4,9.9-3.7,18.5l1.5,3.5l-0.1-6.8c0-5.2,0.4-7.4,1.9-9.5
	c2.1-2.8,10.1-7.5,11.4-6.7c0.5,0.3,0.4,2.2-0.1,4.2c-1.2,5.3-1.1,11.9,0.3,21l1.2,7.8l0.8-9.5c0.9-10.7,3.3-21.4,5.3-23
	c0.8-0.6,2.6-1,4.2-0.8c3.2,0.4,3.3,0.8,0.9,11.3c-0.9,3.8-1.5,10.1-1.5,14l0.1,7l1.3-6.5c1.7-8.3,4.2-15.6,6.7-19.8
	c1.8-3,2.5-3.3,5.2-2.8l3.1,0.6l-3-2.5C183.7,21.5,180.1,19.7,177.4,18.9z"/>
</svg>
