<?xml version="1.0" encoding="UTF-8"?><svg id="Capa_1" xmlns="http://www.w3.org/2000/svg" viewBox="0 0 627.46 750.83"><defs><style>.cls-1{fill:#fff;stroke:#fff;stroke-miterlimit:10;}</style></defs><path class="cls-1" d="m392.36,119.03c2.7,0,2.5-.2-1.9-1.5-2.7-.8-6.1-2-7.5-2.6-1.4-.7-4.7-2.7-7.3-4.5-3.4-2.4-4.5-2.8-3.8-1.5,2.3,4.4,14.2,10.3,20.5,10.1Z"/><path class="cls-1" d="m365.86,307.63c-.2-.2-1.5.6-2.9,1.7-4.2,3.4-13.9,7.9-26.3,12.3l-11.8,4.1,5.4,3.7c3,2.1,8.7,7.1,12.7,11.3,8.4,8.7,8,8.7,14.4-2,3.9-6.5,5.8-12.4,7.6-23.4.7-4,1-7.5.9-7.7Z"/><path class="cls-1" d="m2.96,300.83c0,2.5,3,4.6,5.4,3.7,2.2-.8,3.1-5.1,1.6-6.9-2.6-3.1-7-1.1-7,3.2Z"/><path class="cls-1" d="m406.86,314.43l9.2,8.8-2.9,3.7c-3.4,4.4-11,15.4-13.5,19.7-.9,1.6,3.4-2.3,9.6-8.7,6.2-6.4,11.9-12.9,12.7-14.3,1.4-2.6,1.3-2.8-5.5-8.8-3.9-3.3-12.9-11.9-20.1-19.1s-13.8-14.2-14.7-15.6l-1.7-2.5.9,2.6c2.9,8.2,13.4,22,26,34.2Z"/><path class="cls-1" d="m393.86,135.53c.4-1.6.5-3.7.2-4.7-.5-1.5-1.4-1-5.3,3-4.6,4.8-8.4,11-7.4,12,.9,1,6.3-1.8,9-4.6,1.5-1.5,3-4.1,3.5-5.7Z"/><path class="cls-1" d="m319.16,311.63c4.6-8.2,13-15.2,28.3-23.6,10.4-5.7,15.2-10,16.6-15.1,1.2-4.5.8-5.6-1.1-3.3-2.2,2.6-15.6,12.4-23.5,17.1-10.6,6.2-18.4,12.2-20.1,15.5-.8,1.5-1.4,4.7-1.4,7.1.1,3.7.2,4,1.2,2.3Z"/><path class="cls-1" d="m277.46,541.33c.4-2,1.2-6.9,2-10.9l1.2-7.2-6.8-2.1c-3.8-1.1-7.5-2.3-8.4-2.6-.8-.3-1.5-.1-1.5.5,0,1.9-6.8,12.2-10.7,16.2-3.1,3.3-3.3,3.8-1.7,4.3,7,2.1,21.3,5.6,23.1,5.6s2.3-.7,2.8-3.8Z"/><path class="cls-1" d="m240.56,580.13l4-4.3c2.1-2.3,5.5-5.9,7.4-8l3.4-3.7h-17l-16.9.1-5.1,7.9-5.1,8h29.3Z"/><path class="cls-1" d="m214.26,311.33c-9,8.1-11.1,10.4-10.3,11.7,1.1,2.1,14.7,17.6,18.9,21.5,1.7,1.6,3.3,2.7,3.6,2.5.2-.3-3.2-5.9-7.6-12.4l-8-11.8,10-10.1c10.6-10.6,17.3-19,21.6-26.9,1.5-2.6,2.4-4.7,2.2-4.7-.3,0-2.4,2.4-4.8,5.2-4.8,6-9.6,10.7-25.6,25Z"/><path class="cls-1" d="m182.66,329.83c-1.8,1.7,0,5.1,9.4,18,13.5,18.4,30.9,39.1,30.9,36.6s-22-35.1-32.8-48.6c-5.4-6.6-6.2-7.3-7.5-6Z"/><path class="cls-1" d="m316.96,362.43l5.9-.6c6.5-.7,18.6-4.7,20.8-7,1.2-1.2.5-2.3-5.4-7.7-3.7-3.5-9.5-8-12.7-10.1-3.3-2.2-6.2-3.9-6.6-3.9-1.6,0-2,3.5-2,16.2v13.1h0Z"/><path class="cls-1" d="m279.66,573.83l.6,6.3h35.7v-5.8c0-3.1.3-6.7.6-8l.6-2.2h-19.7c-18.4,0-19.7.1-19,1.7.4,1,.9,4.6,1.2,8Z"/><path class="cls-1" d="m318.46,535.23c-1.2-4.9-1.3-6.6-.4-7.2.9-.5.6-2.3-1.1-6.8-2.7-7.2-3.6-8.1-7.2-6.7l-2.8,1v30.6h6.5q7.5,0,5-10.9Z"/><path class="cls-1" d="m403.66,385.03c1.9-.8,13.6-14.6,24.7-29.4,14.5-19.3,16.8-22.8,16-24.8-.3-1-1-1.7-1.5-1.7-1.3,0-12.9,15-24.6,31.8-10.5,15.1-16.3,24.7-14.6,24.1Z"/><path class="cls-1" d="m75.86,114.33c-8-4.5-15.5-8.2-16.7-8.2-2.3,0-4.2,4.4-2.6,6,1.2,1.2,31.3,18,34,19.1,2.6.9,6-2.1,5.1-4.5-.7-1.8-1-2-19.8-12.4Z"/><path class="cls-1" d="m108.96,104.13c-5.5-4.6-8.3-5.6-9.9-3.6-2.1,2.5-.8,4.8,5.1,9.4,4.9,3.8,5.9,4.2,7.8,3.2,3.2-1.7,2.2-4.7-3-9Z"/><path class="cls-1" d="m119.06,84.93c10.4,9.8,12.2,11,14.3,9.3,3.2-2.7,1.7-5.3-7.6-14.2-10.6-10.1-14.8-11.5-14.8-5.2,0,1.8,2.3,4.7,8.1,10.1Z"/><path class="cls-1" d="m29.46,526.73c1.3-.5,1.5-2.5,1.3-13.3l-.3-12.8-2.6-.3c-1.8-.2-2.9.3-3.3,1.4-1,2.6-.5,26.3.5,27,.5.3.9,0,.9-.6,0-.7.7-.5,1.6.4,1.9,2,3.1,2.1,1.5.2-.9-1.1-.8-1.5.4-2Z"/><path class="cls-1" d="m12.96,250.93c-1.6,1.3-2.1,2.4-1.6,4,1.1,3.3,4.6,3.9,6.8,1.2,1.6-2,1.7-2.6.5-4.3-1.9-2.9-3-3.1-5.7-.9Z"/><path class="cls-1" d="m35.96,203.13c-.3,0-1.4.6-2.4,1.3-2.2,1.6-1.8,5.5.7,7.1,3.9,2.4,7.9-4.4,4.1-7.1-1-.7-2.1-1.3-2.4-1.3Z"/><path class="cls-1" d="m343.46,3.23c-11.9-1.9-34.3-3.3-42-2.5-49.7,4.9-91.2,25.8-120.1,60.6-9,10.8-13.1,17.5-11.6,19,.8.8,5.4-3.3,15.9-13.9,25.6-25.8,48.9-40.4,79.7-49.7,15.4-4.7,26.4-6.6,41.6-7.3,19.5-.9,38.5,1.8,58,8.3,28.7,9.6,52.7,25,77.2,49.6,7.5,7.6,13.9,13.8,14.2,13.8,1.7,0,.1-4.8-3.3-9.8-22.9-33.5-67.6-61.3-109.6-68.1Z"/><path class="cls-1" d="m443.36,577.83l.7,2.3h74.8l.6-4.8c.3-2.6.8-6.2,1.1-8l.5-3.2-39.3.1c-21.6.1-40.2.3-41.3.6-3.6.9-3.8,2.1-.7,6.5,1.6,2.3,3.2,5.3,3.6,6.5Z"/><path class="cls-1" d="m450.96,440.13c-.7,0-.9.9-.5,2.2,1.1,3.7,8.4,18.8,9.1,18.8,1.2,0-.5-6-4-13.5-1.9-4.1-4-7.5-4.6-7.5Z"/><path class="cls-1" d="m341.96,51.73c0-1.4-1.9-.4-3.2,1.6-2.2,3.4-4.9,8.8-4.4,8.8.6,0,7.6-9.6,7.6-10.4Z"/><path class="cls-1" d="m463.46,117.53c-22.4-46.4-67-81.6-118.3-93.5-6.6-1.6-13.1-2.1-27.2-2.4-20.2-.3-21.1-.3-35.1,2.6-58.2,11.6-108.9,56.8-127.9,113.7-7.4,22.2-10.1,45.2-8.2,68.4,1.5,17.5,3.2,26,8.2,40.9,4.2,12.8,7.6,20,15.3,32.9,8.7,14.4,26.3,35.1,23.3,27.4-.4-1-.1-1.4.6-1.1.7.2,2.3-.4,3.5-1.3,7.5-5.8,15.2-12.8,25.4-22.9,14.2-14.3,17.4-19.8,17.3-30.6-.1-8.2-2.1-13.2-8.6-21.2-12.5-15.1-31.9-23.8-51.6-23.1-5,.2-9.2,0-9.2-.3,0-.9,15.9-14.4,22-18.7,8.3-5.8,15.9-9.9,27.2-14.5l10.1-4.2-.2-9.8c-.2-8.1-.6-10.6-2.9-15.5-2-4.5-2.7-7.7-3-15-.4-8.2-.6-9.2-2.3-9.2-2.4,0-7.5-4.8-8.4-7.8-.7-2.3-.7-2.4,1.9-.6,2.1,1.3,4,1.6,8.6,1.1,7.8-.7,8.9-1.5,5.1-3.8-6-3.7-7.9-10.6-5-18.6,1.8-4.9,3.8-7.4,12.3-15.8,5.6-5.5,13.5-12,17.5-14.5,7.8-4.9,11.5-7.6,21.4-16,12.6-10.7,23.3-15.7,35.8-16.7,12.3-1,24.5,4.2,40.3,17.5,4.5,3.8,12.8,9.9,18.6,13.7,17.9,11.6,32.4,27.4,33.5,36.5.7,5.6-2.3,11.4-7.3,14.1l-3.3,1.7,3.7,1.2c3.6,1.2,11.2.9,14.7-.5,1-.4,1.7-.3,1.7.3,0,2.1-5.1,7.1-7.9,7.7-2.8.6-2.8.7-3.3,9.4-.4,6.4-1.2,10.3-3.1,14.7-2.1,4.8-2.7,7.8-2.9,15.7l-.3,9.7,5.5,2.1c9.1,3.4,23.7,11,31.5,16.3,8,5.5,19.3,14.9,21.7,18.1,1.5,2,1.4,2-7.1,1.7-18.6-.7-35.4,5.8-47.9,18.5-9.6,9.7-12.7,16.1-12.6,25.8,0,8.9,3,15.5,11,24.7,8.1,9.3,28.8,27.5,30.6,27,.5-.1.7.1.4.6-.3.5.9,1.9,2.5,3.2l3.1,2.2,5.4-5.8c3-3.3,5.4-6.2,5.4-6.5s1-1.7,2.1-3c3.6-4,12.4-17.9,16.3-25.6,12.9-25.7,18.5-53.1,17.3-83.7-1-23.7-6.4-45-17.2-67.2Zm-260.6,178.6c.6,0,1.1.4,1.1,1,0,.5-.2,1-.4,1-.3,0-.8-.5-1.1-1-.3-.6-.1-1,.4-1Zm-8.3,9c-.3,0-.8-.5-1.1-1-.3-.6-.1-1,.4-1,.6,0,1.1.4,1.1,1,0,.5-.2,1-.4,1Zm-1.1-6.8c1.7,0,2.4.2,1.8.5-.7.2-2.1.2-3,0-1-.3-.4-.5,1.2-.5Zm240.2,6.4c-.3.3-1.2.4-1.9.1-.8-.3-.5-.6.6-.6,1.1-.1,1.7.2,1.3.5Zm3.4-3.6c-.6,0-1.1-.5-1.1-1,0-.6.2-1,.4-1,.3,0,.8.4,1.1,1,.3.5.1,1-.4,1Z"/><path class="cls-1" d="m416.76,478.73c1.4.9,2.9.7,7-1,2.8-1.2,5.4-2.4,5.7-2.8.3-.3-.4-2.6-1.7-5.2-2.4-5.1-3.3-5.6-4.3-2.6-.4,1.1-2.4,3.4-4.6,5.2-4.3,3.5-4.8,4.8-2.1,6.4Zm1-1.5c-1-.7-1.8-1.5-1.8-1.7,0-.8.8-.3,2.1,1.3,1.3,1.6,1.2,1.7-.3.4Z"/><path class="cls-1" d="m465.96,451.93c0-1.9,1.4-3.1,7.3-6.2,9.3-5,20.7-11.7,20.7-12.2,0-1-3.5.3-15.5,5.7-13.6,6-16.2,6.7-18.4,4.6-1.1-1-1.2-.7-.6,1.3,1.9,6.6,6.5,11.4,6.5,6.8Z"/><path class="cls-1" d="m383.46,173.13c3.3-2.7,4.5-6.8,4.5-15,0-4.4-.3-8-.7-7.9-.5,0-2.1,1.3-3.7,2.8-2.8,2.8-2.8,3.1-2,8.7.5,3.3.7,7.4.6,9.3-.3,3.1-.2,3.3,1.3,2.1Z"/><path class="cls-1" d="m400.66,436.13c-.6.8,1.3-.8,4.2-3.5,10.3-9.7,32.4-37.5,31-39-1-.9-33.4-1.5-35.4-.6-1.1.5-1.5,1-1,1,.6.1.3.6-.5,1.1-1.3.9-1.3,1,0,1,3.2,0,27.4,3,27.8,3.5.3.2-.9,2-2.5,3.8-2.4,2.7-12.6,16.8-23.6,32.7Z"/><path class="cls-1" d="m309.66,488.73c.3-.2-1.5-1.6-4-3-4.8-2.8-5.7-3.1-5.7-1.6,0,1,9,5.3,9.7,4.6Z"/><path class="cls-1" d="m306.06,301.13c-1.9-2.7-10.6-9.1-25.3-18.5-5.1-3.3-11.7-8.2-14.7-11l-5.4-5,.8,3.5c1.4,7,4.6,10.1,18.6,18.4,12.7,7.6,21.3,14.7,26.8,22.1l2.2,3-.7-5c-.3-2.8-1.4-6.1-2.3-7.5Z"/><path class="cls-1" d="m260.56,310.83c2.1,14.5,6.7,26.9,12.7,33.8l3.3,3.8,5.9-6.8c3.3-3.7,8.6-8.7,11.8-11.2,3.2-2.5,5.5-4.9,5-5.2-.4-.4-3.4-1.5-6.6-2.5-3.2-.9-9.7-3.5-14.4-5.7-4.8-2.2-10.9-5.6-13.6-7.5l-4.8-3.5.7,4.8Z"/><path class="cls-1" d="m458.26,340.53l-5.2-2.3-1.5,2.1c-1.5,2.2-1.3,3.8.5,3.8,2.6,0,33.8,16.2,37.6,19.4,8.6,7.4,11.6,18.2,13.3,46.1.8,13.8,3,113.9,3,135.8,0,3.1.3,3.7,2.2,3.7h2.1l-.6-75.3c-.8-83.6-1.1-89.5-6.8-101.9-4.7-10-10.6-15.1-26.4-22.8-7.2-3.4-15.3-7.3-18.2-8.6Z"/><path class="cls-1" d="m394.56,580.13h39.6l-3.1-3.8c-3.9-5-9.7-9-15.7-10.8-3.6-1.1-11.5-1.4-34.1-1.4-16.1,0-29.3.1-29.3.2,0,.2.7,2.1,1.5,4.3s1.4,5.7,1.5,7.7v3.8h39.6Z"/><path class="cls-1" d="m150.26,685.93c-1.7-3-1.8-7-2.1-50.1l-.3-46.7h-28.9v22.5c0,13.9-.4,22.5-1,22.5-1,0-7.8-9-21-28.1-4.7-6.7-9.6-13.4-11-14.8l-2.5-2.6-16.2.3-16.3.2v51.4c0,42.1-.3,52.1-1.5,56.1-.8,2.7-1.2,5.1-.9,5.4.4.4,27.5-3.3,33.1-4.6l2.2-.5-2.2-4.2c-2.1-3.8-2.2-5.6-2.5-28.1-.2-13.2-.2-26.4,0-29.3l.3-5.4,11,15.7c20.7,29.6,34.7,48.5,35.8,48.5,2,0,25.1-4,25.5-4.4.2-.2-.5-1.9-1.5-3.8Z"/><path class="cls-1" d="m490.16,322.03c5.4,3.1,5.3,3.8,4.9-54.2-.2-29.2-.6-53.9-1-54.9-.3-1-1.4,3.4-2.5,10-1,6.4-2.5,13.4-3.2,15.7-1.1,3.2-1.4,12-1.2,43l.3,38.9,2.7,1.5Z"/><path class="cls-1" d="m235.86,118.63c5.4-.6,10.5-2.7,15.1-6.4,3.4-2.7,2.2-3.4-1.4-.9-1.5,1.2-6.5,3.4-11,5l-8.1,2.9,5.4-.6Z"/><path class="cls-1" d="m308.96,349.83c0-6.7-.3-13.2-.6-14.5-.4-1.2-1-2.2-1.4-2.2-2.8,0-26,18.6-26,20.9,0,1.7,20.2,8,25.8,8.1,2.2,0,2.2-.2,2.2-12.3Z"/><path class="cls-1" d="m332.56,156.63l2.8,2.3c1.6,1.2,4,2.2,5.5,2.2,2.9,0,9.1-3.4,9.1-5,0-1.1-9.6-1.2-14.5-.1l-2.9.6Z"/><path class="cls-1" d="m274.96,155.93c0,1.4,3.3,4,6,4.7,2.8.7,7.3-.7,9.5-2.9,1.2-1.2.9-1.5-1.7-2-4.5-.9-13.8-.7-13.8.2Z"/><path class="cls-1" d="m292.26,524.73c-1.9-.6-2.2,0-3.7,8.1-2.5,13.6-2.6,13.3,3.9,13.3h5.5v-14c0-7.7-.1-14-.3-14-1.4,0-4.5,4.3-4,5.6.5,1.3.2,1.5-1.4,1Z"/><path class="cls-1" d="m308.16,458.13c.4,0,.8-19.5.8-43.3v-43.3l-9.2-1.7c-5.4-1-12.2-3.2-16.3-5.2-4.4-2.1-9.2-5.5-12.9-9.2l-5.9-5.8.7,5.5c1.3,10,7.7,38.1,11.2,48.9,5.7,17.7,16,36.7,26.7,49.3,2.2,2.7,4.4,4.8,4.9,4.8Z"/><path class="cls-1" d="m218.56,526.73c1.5,8.1,8.7,10,14.7,3.9,3.4-3.5,12.9-21.4,14.2-26.8.6-2.4.3-2.9-2.9-4.2-4.9-2.1-8.5-1.8-12.8,1-8.3,5.4-14.7,18.2-13.2,26.1Zm14.7-10.5c1.3,2-.7,7.5-3,8.4-2.3.8-6.3-2.2-6.3-4.7,0-1.2.8-3,1.7-4,2-2.2,6.1-2,7.6.3Z"/><path class="cls-1" d="m243.96,175.13c.3,0,.5-4.5.5-10v-10.1l-3.1-2.4-3.1-2.4-.6,5.2c-.4,2.9-.2,6.9.2,9,.8,3.5,4.9,10.7,6.1,10.7Z"/><path class="cls-1" d="m230.86,454.13c1.3,0,4.4-7.8,3.8-9.4-.3-.8-2.8-2.5-5.4-3.7s-10.6-4.8-17.6-8c-7-3.3-13-5.9-13.1-5.9-.6,0-3.6,7.9-3.6,9.3,0,1.1,33.7,17.7,35.9,17.7Z"/><path class="cls-1" d="m246.86,528.63c3.3-3.1,9.1-13.6,9.1-16.4,0-.9-.5-2.3-1-3.1-.8-1.3-1-1.3-1,.1,0,.9-2.3,6.3-5.1,12-4.9,10.1-5,10.3-2,7.4Z"/><path class="cls-1" d="m241.86,146.13c1.9,1,2.1.8,2.1-1.8,0-3-2.1-6.3-7.4-11.9-1.7-1.8-3.4-3.3-3.8-3.3-1.2,0-1.9,3.7-1.2,6.4.6,2.6,6.4,8.4,10.3,10.6Z"/><path class="cls-1" d="m188.56,414.13c-.8,0-.7,8.9,0,11.8.6,2.1.8,2,2.5-1.8,2.4-5.4,2.4-7.7,0-9-1.1-.5-2.2-1-2.5-1Z"/><path class="cls-1" d="m322.26,600.63l-3.9-11-20.6-.3-20.6-.2-12.6,38.3c-6.9,21.1-13.2,39.2-13.9,40.1-1.2,1.7-1.8,1.2-6.4-5-8.7-12-26.9-38.8-28.7-42.2-2-3.8-2.9-2.2,11.8-20.7,4.9-6.2,7.4-10.1,6.5-10.2-.8-.1-7.3-.4-14.6-.6l-13.2-.4-6.3,7.8c-3.5,4.3-6.6,7.8-7,7.9-.5,0-.8-3.4-.8-7.5v-7.5h-30v45.2c0,43.1-.1,45.5-2,49.7-1.1,2.4-1.8,4.6-1.6,4.9.5.4,33.9-2.6,36.3-3.3.8-.3.5-1.6-.9-4.4-1.7-3.5-2-6.4-2.2-24.5-.1-11.3.1-20.6.5-20.6.6,0,16.4,22.8,27.8,40.2,5,7.6,4.1,7.3,17.1,5.8,4.7-.5,16.4-1.4,26-2,9.6-.7,17.6-1.3,17.8-1.5.1-.1-.2-1.4-.7-2.7-.6-1.7-.6-4,.1-6.7l1-4.1h32.7l1.1,4.1c.6,2.3.9,5.3.5,6.7l-.6,2.5,13.3-.7c15.3-.8,17.4-1.2,18.2-3.3.5-1.2-12.2-40.2-24.1-73.8Zm-24.3,46.5q-12.1,0-11.5-2.3c.4-1.2,3-9.5,5.8-18.5,2.8-8.9,5.4-15.9,5.7-15.5.4.5,3.1,8.2,6,17.3s5.5,17.1,5.8,17.7c.3,1-2.5,1.3-11.8,1.3Z"/><path class="cls-1" d="m214.66,426.73c.4-.3-2.3-5-5.9-10.4-6-9-9.8-15.4-9.8-16.6,0-.6,4.3-1.5,13-2.6,6.7-.8,10.5-1.5,12-2,.3-.1.8-.2,1.3-.1.4,0,.7-.3.7-.8s-1.4-1.1-3.1-1.5c-5.3-1-33.9-.1-33.9,1.1,0,.9,9,15.3,13.1,20.8,4,5.6,11.8,13,12.6,12.1Z"/><path class="cls-1" d="m242.06,449.43c-.5,1.2-2.1,4.8-3.5,8-1.5,3.2-2.3,6.3-2,6.9.4.6,11.8,6.5,25.3,13.1,27.2,13.2,27.5,13.2,31.8,6.8,1.3-1.9,2.3-4.9,2.3-6.7,0-3.9-3.2-6.8-12-10.7-3-1.4-13.5-6.3-23.3-11.1-17.4-8.4-17.8-8.5-18.6-6.3Zm38,29.1c1.2-1.5,2.9-1,2.9.9,0,.7-.4.6-1-.3-.9-1.4-1.4-.7-1.1,1.3.1.5-.3.6-.9.2-.8-.5-.8-1.1.1-2.1Zm-2.4-1.7c1.2-1.3,1.5.1.4,2-.8,1.5-1,1.5-1.1.2,0-.9.3-1.9.7-2.2Zm-5.7-2.2c1.4-1.6,2.1-1.9,1.9-.8-.4,2.6.2,3.5,1.5,2.4,1.2-1,1.3-.9.9.8-.5,2-.6,2-5.2-.6-.2-.2.2-.9.9-1.8Zm-2.4-2c.4-.9.8-1.4,1-1.2.3.2,0,1.5-.5,2.8s-1,1.9-1,1.2c-.1-.6.2-1.9.5-2.8Zm-5.1-2.5c1-1.1,2.1-2,2.4-2s0,.5-.6,1.1-.9,1.8-.6,2.6c.5,1.2.7,1.2,1.4.1.7-1,.9-.9.9.5s-.5,1.7-2.2,1.1c-3.3-.9-3.3-1.2-1.3-3.4Zm-2.9-1.5c.4-.9.8-1.4,1-1.2.3.2,0,1.5-.5,2.8s-1,1.9-1,1.2c-.1-.6.2-1.9.5-2.8Zm-5.4-2.3c1.6-1.6,1.7-1.5,1.3.8-.5,2.5.4,2.6,2,.3,1.2-1.6,1.3-1.4.8.9-.5,2.4-.7,2.6-2.9,1.6-2.7-1.3-2.9-1.9-1.2-3.6Zm-8.3-3.6c.5-2,.6-2,.9.2.3,1.9.6,2.1,1.8,1.1,1.1-.9,1.4-.7,1.4,1.2q0,2.2,1.5.3c1.5-2,2.1-.8.6,1.5-1.5,2.3-7-1.5-6.2-4.3Zm-2.3-1.1c.4-.9.9-1.4,1.1-1.1.3.2,0,1.3-.6,2.3-1.2,2-1.4,1.4-.5-1.2Zm-1.7-.8c.1,2.6-.2,2.7-3.1,1.2-1.7-.9-1.8-1.3-.7-2,1.8-1.1,2.2-1.1,1.4,0-.3.5-.1,1.2.4,1.5.5.4,1.2-.2,1.4-1.1.4-1.4.5-1.3.6.4Z"/><path class="cls-1" d="m438.36,469.13c1.5,0,13.9-6.5,14.3-7.6.2-.7-.7-3.2-2.1-5.7-1.4-2.4-2.6-5.1-2.6-5.9,0-.9-.8-2.5-1.7-3.7l-1.8-2.1-6.9,3.5c-3.8,1.9-7.1,3.7-7.4,3.9-.7.7,1.9,6.6,2.8,6.6.5,0,3.6-1.3,7.1-3,6.3-2.9,9.2-3.1,5.4-.4-1.1.8-4.1,2.5-6.7,3.7-2.7,1.2-4.8,2.6-4.8,3.2,0,1.1,3.7,7.5,4.4,7.5Z"/><path class="cls-1" d="m297.46,213.13c-3.8,0-3.8-.1-1,11l1.1,4.5,1.7-6.7c.9-3.7,1.7-7.2,1.7-7.8,0-.5-1.6-1-3.5-1Z"/><path class="cls-1" d="m365.16,181.63c6.1-4.5,8.2-8.6,7.5-15.5-.3-3.2-1.5-9.1-2.8-13.1-1.9-5.9-3.3-8.4-7.1-12.2-5.2-5.2-7.8-5.8-10.1-2.3-.9,1.3-2.3,3.1-3.3,4-2.1,2.1-1.8,2.3,6.9,6.6,3.9,1.9,7.3,4,7.4,4.6.2.5-.9,1.4-2.4,2-1.7.6-3.6,2.6-5.2,5.8-3.8,7.2-6.9,9.1-14.4,8.9l-6.2-.2,2.5,1.9c1.4,1.1,2.8,2,3.3,2,1,0,.9,2-.2,2-2,0-19.4-12.6-21.4-15.5-2.8-4-3.6-4.5-7.4-4.5-2.5,0-3.8.8-6.2,3.9-4.4,5.6-21.3,17.3-22.7,15.8-.3-.2.8-1.9,2.3-3.8,2.3-2.8,2.5-3.2.8-2.5-7.7,3-13.4.4-17.4-8.1-1.7-3.4-3.2-5.3-4.6-5.5-1.2-.2-2-1-2-2.2,0-1.4,2-3,7-5.5,3.9-2,7.2-3.7,7.4-3.9.3-.1-.9-2.1-2.6-4.4-1.7-2.3-3.4-4.3-3.9-4.5-.5-.1-3.2,1.5-6,3.6-5.5,4.2-8.1,9-10.9,19.7-3,11.4-1.4,15.9,8,23.4,8.8,7,13.3,12.3,14.1,16.6.8,4.6,0,19.6-1.3,21.9-.8,1.3-1.1.5-1.6-3.7-.7-6.9-5.3-16.1-10.6-21.2-2.2-2.2-4.3-3.8-4.5-3.5-.3.2,1.4,4.2,3.7,8.8,3.9,7.9,4.2,9,4.4,17.5.1,5,.2,9.9.2,10.8.1.9,2.7,5.4,5.8,10,3.4,5,7.2,12.3,9.5,18.2,6.1,16,13.8,21.7,22.8,17.1,4.6-2.4,6.4-6.8,6.4-16.2.1-4.5-.2-8.4-.6-8.8s-2.3.5-4.3,2.1l-3.6,2.7.7-2.9c.4-1.6,1-4,1.4-5.4.8-3,4.3-5,8.7-5,5.6,0,8,1.5,9.8,6.5,2,5,1.5,6.6-1.2,4.3-4.7-4-6.3-2.6-6.3,5.7,0,10.3,5.6,18.5,12.7,18.5,7.8,0,13.1-5.7,17.9-19,1.4-4.1,5.3-11.5,8.5-16.4,3.3-4.9,5.9-9.4,6-10,0-.6.2-5.8.2-11.6.2-10.3.3-10.6,4.6-19,4.5-8.6,4.3-8.9-2.2-3.1-4.8,4.3-9.5,15.5-9.8,23.1l-.1,3.5-1.3-4c-1.8-5.5-1.9-19.4-.1-23.6,1.5-3.5,7.3-9.5,13.8-14.4Zm-29.3,65.8c-2.4,7.4-3.9,9.4-3.9,5,0-5.2-2.2-10.7-5.5-14s-3.4-3.3-12.6-3.3c-7.4,0-10,.4-12.5,1.9-4,2.5-6.4,7.7-6.4,14.3l-.1,5.3-2.1-4c-3.7-7.1-5-14-7.1-40.2-.3-2.7.2-3.5,2.8-4.8,4.4-2.2,10.3-1.8,16.3,1,3,1.4,6.4,2.5,7.7,2.5s4.7-1.1,7.7-2.5c6.1-2.8,12.5-3.2,16.8-1,2.8,1.4,3,2,3,6.9,0,10.1-2,26.1-4.1,32.9Zm4.2-44.3c-1.1-1.4-3.1-4.8-4.3-7.6l-2.3-5.1-4.1,3.1c-2.3,1.7-5.4,5-6.9,7.4-1.5,2.3-4.2,5.4-6,6.8-3.2,2.4-3.5,2.5-6.4.9-1.7-.8-3.8-3-4.7-4.7-.9-1.8-4.2-5.7-7.2-8.6l-5.5-5.4-1.9,4.8c-1,2.7-2.7,6-3.9,7.4l-2,2.5.6-4.8c.8-5.8,1.7-8,7.3-17.5,3.6-6,4.7-7.2,6.9-7.2,2.9,0,7.3,3.5,7.3,5.8,0,1.2-.6,1-2.3-.6-2.9-2.7-5.3-2.8-6.7-.3-1.5,2.8-1.4,3,3,4.7,3,1.2,4.8,2.9,7.2,7,1.8,2.9,3.8,5.6,4.5,5.8.7.3,2.5-1.7,4.2-4.7,2-3.4,4.4-6,7-7.5,3.8-2.1,4-2.4,2.9-4.7-1.3-3-2.5-3.1-5.8-.5-4.3,3.4-4.6,2.2-.5-2,2.1-2.2,4.3-4,4.7-4,1.3,0,4.6,3.7,6.8,7.7,1.1,2.1,3.2,5.3,4.5,7.2,2.3,3.2,3.3,5.9,4.9,13.6l.7,3-2-2.5Z"/><path class="cls-1" d="m568.46,360.63c-2.7,21.8-7.5,43.4-13.8,62-1.3,3.8-2.4,9-2.6,11.5-.1,2.5-.4,5.3-.7,6.2-.3,1-.1,1.8.5,1.8s1.1.8,1.1,1.7c0,1.5-.2,1.6-1,.3s-1-1.2-1,.2c0,2.4.4,3.3,1.2,3.1.4-.2.2.9-.4,2.2-.9,1.9-.9,2.8,0,3.7.9.9.8,1.7-.6,3.2-1.5,1.7-1.5,1.9,0,1.3,1-.4,1.8.1,2.1,1.2.5,2.2-1.6,6.4-2.8,5.4-.4-.4-.5-.2-.1.5.5.9,1.3.9,2.6.2s2.1-.7,2.5,0c.3.5-.1,1-1,1s-1.3.4-1,1c.3.5,1.7,1,3,1,1.8,0,2.3.4,1.9,1.5-.4.9,0,1.5,1,1.5s1.5-.8,1.5-2.3c-.1-1.2.2-3,.6-4,.5-1.3.2-1.7-1.4-1.7-1.2,0-2.1-.5-2.1-1.1,0-.5.5-.7,1.2-.3.7.4.8.3.4-.4-.5-.8,0-1.2,1.2-1.2,1.6,0,2,.6,1.8,3-.1,1.8.2,2.9.8,2.7.6-.2,1.1-1.4,1-2.6,0-1.1.5-2.1,1.2-2.1,2.9,0,16-30.4,22.2-51.5,7.7-26.4,10.4-45.4,10.6-74.5.1-27.4-.5-36.2-3.9-52.2-8.2-39.5-24.7-74-51.9-108.3-11.6-14.5-36.2-38.5-51.2-49.8-7.1-5.3-13.2-9.7-13.6-9.7-1.3,0-1,1.2,2.7,10.3,1.9,4.8,4.6,12.5,5.9,17.1l2.5,8.5,11.3,11.3c37.6,37.7,59.2,80.1,67.3,132.8,2.3,14.4,2.8,51,1,65.5Zm-1.1,67.6c1.1-.1,1.7.2,1.3.5-.3.3-1.2.4-1.9.1-.8-.3-.5-.6.6-.6Zm-2,12.9c.3,0,.8.4,1.1,1,.3.5.1,1-.4,1-.6,0-1.1-.5-1.1-1,0-.6.2-1,.4-1Zm-6.9.1c.9-1.6,1.5-1.3.8.4-.3.9-.8,1.4-1,1.1-.3-.3-.2-.9.2-1.5Zm-2.8,3.6c.3-.4.9-.5,1.2-.2.2.3-.1,1.1-.7,1.7-.7.7-1.2.8-1.2.2,0-.6.3-1.4.7-1.7Zm1.3,15.3c-1,.6-.9,1.4.9,3.6,2.8,3.6,1.8,4.4-1.5,1.1-2.2-2.2-2.4-2.9-1.3-4.8.9-1.7.9-2.4,0-2.7-.6-.2-1.1-.8-1.1-1.3s.5-.9,1-.9c.6,0,1,.5,1,1.1s.6.9,1.4.6c1.8-.7,1.5,2.1-.4,3.3Zm2.1-5c-.6,0-1.1-.6-1.1-1.3,0-.8-1.1-1.2-2.9-1.1-2.2.1-2.8-.2-2.4-1.2s.9-1.1,1.7-.5c1.7,1.4,4-.3,3.2-2.4-.5-1.3-.2-1.6,1-1.1.8.3,1.9.6,2.3.6s.8.7.8,1.5c0,1.1-.4,1.2-1.4.4-1-.9-1.2-.6-.7,2,.4,2,.3,3.1-.5,3.1Zm4-.1c-.7.5-1.1,1.3-.7,1.9.3.5-.1,1.2-.9,1.6-1.8.6-1.9.1-.5-2.5.6-1,1.6-1.9,2.3-1.9.8,0,.8.3-.2.9Zm-.1-8.4c-.5.3-1,.2-1-.4,0-.5-.8-1.2-1.7-1.4-1.1-.3-.7-.5,1-.6,2.7-.1,3.6,1.2,1.7,2.4Zm4.3,11.2c-.6-.4-1.3-.1-1.6.5-.2.7-.4,0-.4-1.5s0-2.7.1-2.5.8,1.2,1.6,2.2c.8,1.1,1,1.7.3,1.3Zm7.1-19.1c.3.8.2,1.2-.4.9s-1-1-1-1.6c0-1.4.7-1.1,1.4.7Zm-5.1,12.4c-.7,0-1.5-.5-1.8-1-1-1.6-2.8-1.2-2.1.5.3.8.1,1.5-.4,1.5-1.4,0-1.2-1.6.2-4,.9-1.3,1.4-1.6,1.7-.8.2.7,1,1.9,1.9,2.5.9.7,1.1,1.3.5,1.3Z"/><path class="cls-1" d="m515.96,114.13c1.7,0,13-9.1,13-10.4,0-.8-.7-2.2-1.6-3-.8-.9-1.6-1.6-1.7-1.6-3,.4-13.7,8.9-13.7,11,0,1.1,2.9,4,4,4Z"/><path class="cls-1" d="m539.56,129.73c10.9-5.7,29.8-17.2,30.7-18.8.8-1.2.7-2.1-.2-3.2-.8-.9-2.1-1.6-3-1.6-2.4.1-33.4,17.7-34.9,19.8-1,1.6-1,2.3.6,4.2l1.8,2.2,5-2.6Z"/><path class="cls-1" d="m501.06,79.73c-8.2,7.8-9.2,9-8.9,11.8.2,2.3.9,3.2,2.5,3.4,1.7.3,4.7-2,11.8-8.9,9.3-9,10.7-11.3,8.3-13.7-2.3-2.3-4.5-1.1-13.7,7.4Z"/><path class="cls-1" d="m350.46,402.93c3.2-10.8,8.1-34.4,9.1-43.8.3-3.8.5-6.9.3-6.9-.2.1-2.1,1.9-4.3,4-7.1,7.3-17,11.7-31,13.9l-7.6,1.3v43.3c0,25.6.4,43.4.9,43.4,1.5,0,8.8-8.8,14.3-17,6.6-10,15-27.5,18.3-38.2Z"/><path class="cls-1" d="m591.86,211.63c2.9-.9,3.6-4.2,1.5-6.6-2-2.2-2.2-2.2-4.6-.8-3.8,2.2-1.1,8.8,3.1,7.4Z"/><path class="cls-1" d="m325.96,535.33c.1,2.2,3,9.3,3.8,9.6,1.7.5,1.5-1.4-.8-5.8-1.7-3.3-3.1-5-3-3.8Z"/><path class="cls-1" d="m120.56,380.23c-1.5,5.1-4.6,20.9-4.1,20.9.1,0,1.6-.5,3.2-1.1,2.9-.9,3.2-1.5,4.8-9.7,2.4-12.4,5-18.4,10.2-24.2,3.8-4.3,7.3-6.4,22.7-14.1,9.9-5,18.1-9.5,18-10s-.2-1.4-.2-1.9c-.4-2.1-5.3-.6-18.9,6-24.9,12-31,17.8-35.7,34.1Z"/><path class="cls-1" d="m136.56,322.03l2.9-1.4.3-39.4c.1-25.3-.1-39.8-.8-40.6-.5-.6-1.9-7.2-3-14.5-1.1-7.4-2.2-13.5-2.4-13.7-1-1-1.7,17.8-2.2,60.2-.7,52.3-.7,52.2,5.2,49.4Z"/><path class="cls-1" d="m119.96,498.33c0-2.2.3-7.3.6-11.5.6-6.7.5-7.7-1-7.7-1.4,0-1.6,1.5-1.6,11.5,0,7,.4,11.5,1,11.5s1-1.7,1-3.8Z"/><path class="cls-1" d="m176.96,580.13h15v-2.8c0-1.6.7-5.1,1.5-7.8s1.5-5,1.5-5.2c0-.1-8.3-.2-18.5-.2h-18.4l1.9,4.2c1.1,2.4,2,6,2,8v3.8h15Z"/><path class="cls-1" d="m115.36,567.13c1.6,2,2.8,4.9,3.2,8l.7,5h28.4l.6-6c.4-3.4,1.1-7,1.7-8,1-2,.6-2-18.1-2h-19.1l2.6,3Z"/><path class="cls-1" d="m206.66,509.43c4-8.6,9.8-15.2,17.4-20,4.9-3,5.9-4.1,5.5-5.7-.3-1.2-.8-6.2-1.2-11.3-.4-5-1-9.6-1.3-10.2-.5-.8-13.4-7.1-14.6-7.1-.2,0,.9,2.9,2.6,6.5,1.6,3.5,2.9,6.7,2.9,7,0,1.7-16.8-8.6-20.9-12.7-8.7-8.7-14.3-22.2-16.1-39.1-.6-5.6-1.4-10.5-1.6-10.9-.7-1.1-5.4-3.4-8.6-4.2l-2.8-.6v12.1c0,17.7,1.3,23.8,6.1,29.3,2.1,2.4,3.9,4.6,3.9,4.9,0,1-20.3-9.4-27.3-13.9l-6.8-4.4,3.7-3.7c4.6-4.6,9.3-14.4,10.7-22.7.9-5.5.8-6.7-.6-9-2.1-3.1-4.6-3.3-7.8-.7l-2.4,1.9,2.8,2.2c2.3,1.8,2.7,2.9,2.7,7,0,8.5-8,23-12.7,23-3.1,0-2.9-.9,1.5-8.2,4.6-7.6,6.2-11.9,6.2-16.9,0-5.3-1.5-5.6-3-.6-1.9,6.5-6.6,15.1-10.1,18.6l-3.1,3.2,4.2,8.7c2.3,4.8,5.1,9.8,6.3,11.1,1.2,1.3,6.6,4.5,12,7.2,17.6,8.7,21.6,12,31.6,26.3,2.2,3.3,4.1,6.3,4.1,6.8,0,1-7.6-5-16.6-13.3-4.9-4.4-9-6.8-21.2-12.3-8.3-3.8-15.9-7.7-16.7-8.6-2.1-2.3-8.4-17-12.6-29.1-1.8-5.2-3.4-9.6-3.6-9.8-.1-.2-2.1.1-4.2.8l-3.9,1.1,5.1,11.3c2.7,6.1,6.9,15.9,9.2,21.7l4.2,10.5,12.4,6.5c14.6,7.6,19,10.8,23,16.6,1.8,2.7,5.1,5.5,9.1,7.7,7.2,4.1,13.7,8.7,12.1,8.7-.5,0-6-1.7-12.1-3.9-10.9-3.7-11.3-4-18.4-11.3-6.5-6.8-8.6-8.2-20-13.7-12.9-6.2-15.8-8.6-15.8-13.1,0-2.4-1.6-5.9-2.2-5-.2.3-1.1,2.7-2,5.5l-1.7,5,3.2,3.3c1.8,1.9,7.6,6.5,12.9,10.4,5.4,3.8,14.2,11.1,19.7,16.2,10.8,10.2,19.5,15.3,37.9,22.5,16.1,6.2,15.2,6.3,18.9-1.6Z"/><path class="cls-1" d="m618.46,397.13c1.6-1.8,1.7-2.3.5-4.5-1.5-2.9-4.1-3.2-6.4-.9-2,1.9-2,2.4,0,5.2,1.9,2.7,3.6,2.8,5.9.2Z"/><path class="cls-1" d="m621.86,304.23c2.7-1.5,3.2-3.5,1.5-6-2.6-3.7-7.4-2.1-7.4,2.6,0,2.9,3.3,4.8,5.9,3.4Z"/><path class="cls-1" d="m614.16,250.83c-1-1-2.2-1.7-2.5-1.7-1,0-4.7,3.9-4.7,4.9,0,1.4,3,4.1,4.5,4.1,1.7,0,4.5-2.7,4.5-4.4,0-.7-.8-2-1.8-2.9Z"/><path class="cls-1" d="m569.66,564.13h-43.6l1.5,3.5c.7,1.9,1.4,5.5,1.4,8v4.5h80.8l1.1-6.5c.6-3.6,1.4-7.2,1.7-8,.5-1.3-4.5-1.5-42.9-1.5Z"/><path class="cls-1" d="m583.56,603.23l24.5-.3,1-2.5c.5-1.3.9-4.4.9-6.9v-4.4h-81v48.5c0,40.9-.2,49.1-1.5,52.2-.8,1.9-1.5,3.7-1.5,3.8,0,.5,6.7,1.4,21.5,3,7.7.8,21.9,2.3,31.5,3.4,33.5,3.9,32,4.6,32-14.4,0-13-.1-13.3-2.3-13.9-1.2-.3-13.1-.6-26.5-.7l-24.2-.1v-19.8l23.8-.2,23.7-.3.3-10.7.3-10.8-23.8-.2-23.8-.3-.5-11.5c-.3-6.3-.2-11.9.3-12.5.4-.6,10.9-1.1,25.3-1.4Z"/><path class="cls-1" d="m498.56,690.83c.2-.2-.3-2.3-1.1-4.7-1.2-3.5-1.5-11.2-1.5-44.5v-40.3l11.7-.1c6.4-.1,11.9-.3,12-.5.2-.2.1-2.9-.3-6l-.7-5.6h-71.9l.6,2.7c.3,1.6.8,4.7,1.1,7,.4,2.5,1.1,4,1.8,3.8s4.7-.6,9-1l7.7-.6v38.8c0,36.9-.1,39.1-2,42.8-1.2,2.3-1.6,4.1-1,4.5,1.2.8,34,4.3,34.6,3.7Z"/><path class="cls-1" d="m626.96,347.63c0-.7-.7-2.1-1.6-2.9-.8-.9-2.2-1.6-2.9-1.6-1.7,0-4.5,2.7-4.5,4.4,0,1.5,3.2,4.6,4.8,4.6,1.5,0,4.2-2.9,4.2-4.5Z"/><path class="cls-1" d="m7.36,350.53c.9-.8,1.6-2.2,1.6-2.9s-.7-2.1-1.6-2.9c-2.2-2.3-4.1-2-5.9.8-3.1,4.7,2,8.9,5.9,5Z"/><path class="cls-1" d="m557.86,473.33c.1,2.1,2.1,2.5,2.1.5,0-.8-1.1-1.9-2.4-2.5-1.7-.8-2.3-.7-2.3.1.1,4.4-.4,5.6-2,5.1-1.5-.5-1.5-.4-.3.4.8.6,1.8.8,2.2.6.4-.3.8-.3.8.1,0,.3-1,1-2.2,1.5-2.2.8-2.2.9-.2.9,2.5.1,4.6-1.9,3.5-3.3-.5-.6-.5-2,0-3.1.6-1.7.8-1.7.8-.3Z"/><path class="cls-1" d="m600.66,526.33c.7-.5,1.1-5,1-13.2l-.2-12.5-2.7-.3c-2.2-.3-2.9.2-3.4,2.3-1,4,.2,22.9,1.5,23.3.6.2,1.1,1.2,1.1,2.2s.5,2.2,1.2,2.6c.7.5.8.3.3-.6-.6-1-.4-1.2,1-.6,1.5.6,1.6.4.5-1-1-1.1-1-1.8-.3-2.2Zm-.9-1.7c-.3.3-.9-.2-1.2-1.2-.6-1.4-.5-1.5.5-.6.7.7,1,1.5.7,1.8Z"/><path class="cls-1" d="m551.66,461.33c.3-.7.2-1.6-.1-1.9-.3-.4-.6.2-.5,1.3,0,1.1.3,1.4.6.6Z"/><path class="cls-1" d="m562.96,532.13h3.1l-.3-10.3-.3-10.2-2.7-.3c-2.4-.3-2.8.1-3.2,3-.4,2.7-.2,14.1.3,17,0,.5,1.5.8,3.1.8Z"/><path class="cls-1" d="m537.86,522.63c1.4.8,1.6-13.5,1.9-142.8.3-105.8-.2-142.8-1.8-138.2-.4,1.3-.9,1.5-1.4.7-.4-.7-.4-1.7,0-2.4.5-.8.2-.9-.9-.5s-1.7.1-1.7-.8c0-.8-.4-1.5-.9-1.5s-1.2,5.1-1.6,11.3c-.6,9.6,0,271,.6,278.9.2,1.5.9,3,1.6,3.2.7.3,1.3,1,1.3,1.6s-.4.8-1,.5c-.5-.3-1-.1-1,.5,0,2,2.5.4,2.8-1.8.2-1.5.8-1.9,2-1.5,1.2.5,1-.2-.8-2.8-2-2.8-2.1-3.1-.4-1.6,1.7,1.4,2.1,1.5,2.1.2,0-.8-.4-1.5-.9-1.5-.4,0-.8-.5-.8-1.1,0-.5.4-.8.9-.4Z"/><path class="cls-1" d="m594.46,459.13c-1-1.1-2.3-2-2.9-2-1.8,0-4.5,4.1-3.8,5.9,1.4,3.8,5.3,4.1,7.2.6,1.2-2.2,1.1-2.7-.5-4.5Z"/><path class="cls-1" d="m160.16,417.33c-1,2.7-.9,3.5.2,4.7,1.3,1.2,1.6.9,2.2-2.3.9-4.9-.8-6.6-2.4-2.4Z"/><path class="cls-1" d="m128.96,398.73c-.7.7-.9,1.8-.5,2.4,1,1.6,8.5,5.1,9.5,4.5,1.8-1.1,1.1-4.2-1.2-5.7-3.5-2.3-6.6-2.7-7.8-1.2Z"/><path class="cls-1" d="m15.56,395.53c.4-1.4.1-3.1-.6-3.9-2.5-3.1-7-1.1-7,3.1,0,4.9,6.4,5.6,7.6.8Z"/><path class="cls-1" d="m260.96,88.63c-1.9-.3-7.1.1-11.5,1-9.2,1.7-15.5,2-15.5.5,0-1.9-1.9-1-2.6,1.2-.5,1.6-.1,2.7,1.6,4,2.9,2.3,6.9,2.3,17.2-.2,7.9-1.9,15.8-2.6,15.8-1.5,0,.3-.6,1.6-1.4,2.8-1.9,3-3.1,34.3-1.3,32.9,2.2-1.7,6.7-2.3,10.5-1.2,2.2.6,6.7,3.5,10.8,7,6.9,6.1,13.1,10,15.8,10,.8,0,2.4-1.2,3.6-2.8,1.9-2.3,2.1-3.5,1.6-8.7-.4-3.5-.3-5.5.3-5,1.7,1.8,4.1,10.5,4.1,14.8v4.3l3.4-.4c3.4-.4,3.5-.4,3.5-5.7,0-4.4,2.2-12.5,3.4-12.5.2,0,.2,2.4-.1,5.3-.4,4.6-.1,5.7,2,8.1,3.5,4.1,6.8,3,16.9-5.5,4.6-3.9,9.4-7.5,10.7-8,3.1-1.2,8.9-1.1,11.4.2,1.1.6,2.1.9,2.3.7s-.1-7.8-.6-16.8c-.8-11.9-1.5-16.8-2.5-17.6-3.7-3,2.9-3.1,14.4-.4,14.1,3.4,20.2,2.1,20.2-4.1,0-3.3-.5-3.6-2.8-1.3-1.7,1.8-5.9,1.6-18.2-.6-3.6-.6-8-.9-9.7-.6-4.3.6-4.2.1.7-2.4,4.5-2.3,14.9-4.9,20-5.1,5.5-.1.6-1.7-5.6-1.8-10.7-.2-26.8,4.6-36.7,10.9-2.6,1.6-5,3-5.3,3s.9-2,2.7-4.5c4.8-6.6,12.7-13.8,19.4-17.6,6.2-3.5,6.1-4.9-.2-2.9-9.4,3-19.8,12.4-29.1,26.2-6.1,9-10.4,11.8-17.9,11.8-6.8,0-10.1-2.5-17.3-12.9-7-10.2-16.6-19.8-23.2-22.9-4.4-2.2-10.8-3.9-10.8-2.9,0,.3,2.6,2,5.8,3.8,6.4,3.6,17.7,14,20.7,19.1l1.9,3.3-2.9-2c-12.9-8.4-32-13.8-43.2-12l-4.8.8,7,1.2c7.4,1.3,13.1,3.3,16.8,6,2.2,1.6,2.1,1.6-1.3,1Z"/><path class="cls-1" d="m10.96,575.63v4.5h27.7l1-6.3c.5-3.4,1.3-7,1.8-8,.7-1.6-.2-1.7-11.3-1.7-6.6,0-13.2-.2-14.8-.4-1.6-.2-3.9-.2-5.1.1-2,.4-2.1.6-.7,3.8.8,1.9,1.4,5.5,1.4,8Z"/><path class="cls-1" d="m64.46,467.73c.8.6,1.1,1.5.7,1.9-.4.5.1.5,1.1.2,1-.4,2.1-.7,2.3-.7s.4-.5.4-1.1c0-.7.7-1.7,1.7-2.4.9-.7,1.3-1.7.9-2.3-1.2-1.9-2.3-1.4-3,1.3-.7,2.8-2.1,3.2-4.2,1.1-1.8-1.9-1.8-3.6.1-3.6.8,0,1.2.6.9,1.4-.7,1.7,1.2,3.1,2.1,1.6.4-.6-.1-2.1-1.2-3.2-1.8-2-1.8-2.1,1.9-1.6l3.6.4-1.6-3.1c-1.8-3.4-2.3-6.5-1.1-6.5.5,0,.6-.6.3-1.4s-.1-1.7.5-2c.6-.4.9.7.8,2.6-.1,2.5.2,3.2,1.3,3,1.2-.3,1.3-.1.3.9-1.8,1.8-1.6,2.9.5,2.2,1.3-.5,1.5-.3.5.7-.8.9-.9,1.9-.2,3.1,1.2,2.3.2,6.6-1.8,7.3-.9.4-1.3,1.3-.9,2.2.9,2.3-.3,3.7-2,2.3-1.2-1-1.5-1-1.2.2.2.8,1.1,1.7,2.2,2.2,1.3.5,1.5,1.1.8,2-.7.8-.6,1.8.3,3,1.3,1.8,1.4,1.8,2.4-.2.9-1.6.9-1.9-.1-1.6-1.8.7-2-4.5-.2-6.2.8-.8,1.2-1.9.9-2.4s-.1-1.7.4-2.7,1.2-3.7,1.5-6,.8-4.7,1.1-5.2,0-.7-.7-.5c-.9.4-1.4-.2-1.4-1.5,0-1.1.4-2,.9-2s.4-.7-.3-1.5c-.9-1.1-.9-1.9-.2-2.8.7-.8.9-3.8.6-7.7-.4-3.6-.6-7.2-.6-8s-1.5-6.2-3.3-12c-9.8-30.8-13.5-54.8-13.5-86.8-.1-41.1,6.7-73,22.5-106,11.1-23.2,25.8-43.5,46.3-64,10.3-10.4,11.3-11.7,12.3-16.5.9-4.1,6-18.2,10.6-29.5.9-2.1-1-1.3-7.8,3.6-19.3,13.8-45.7,39.2-59,56.7-33.4,43.9-51.7,90.8-54.5,139.4-.5,9.1-.4,11.5.7,12.2,1.2.7,1.2.9,0,.9-1.1,0-1.2,2.5-.7,13.2,1.5,32.3,7.9,62.4,19.7,91.9,4.8,12.3,14.6,32.1,16.4,33.5Zm9.5-25.7c.7,1.4.7,2.2-.2,2.7-.6.4-.8.3-.4-.4.3-.6.2-1.3-.4-1.7-.5-.3-1-1-1-1.6,0-1.5.9-1,2,1Zm-6.4,7.3c.4.6.3.8-.4.4-.6-.3-1.5.2-2.1,1.1-1.1,2.1-2.6,1.1-1.8-1.2.7-1.8,3.3-2,4.3-.3Zm-4.7-8.2c.6,0,1.1.4,1.1,1,0,.5-.2,1-.4,1-.3,0-.8-.5-1.1-1-.3-.6-.1-1,.4-1Zm.5,4.1c1.1-.1,1.7.2,1.3.5-.3.3-1.2.4-1.9.1-.8-.3-.5-.6.6-.6Zm.2,9c2.1-.1,4.4,1.6,4.4,3.3,0,.5-.8.2-1.7-.6-1-.9-2.5-1.8-3.3-2.1-1.1-.4-.9-.6.6-.6Zm-3.1-4.1c-.3.5-1.4,1-2.3.9-1.4,0-1.3-.2.3-.9q2.7-1.1,2,0Zm-1.1-4c.3,0,.8.4,1.1,1,.3.5.1,1-.4,1-.6,0-1.1-.5-1.1-1,0-.6.2-1,.4-1Zm-1.4-15c.6,0,1,.2,1,.4,0,.3-.4.8-1,1.1-.5.3-1,.1-1-.4,0-.6.5-1.1,1-1.1Zm-26.4-82c-.3,0-.8-.5-1.1-1-.3-.6-.1-1,.4-1,.6,0,1.1.4,1.1,1,0,.5-.2,1-.4,1Z"/><path class="cls-1" d="m41.06,703.03c1-.6,1-1.3-.2-3.6s-1.5-12.1-1.7-56.6l-.3-53.7H10.96v59.5c0,32.7.3,59.5.8,59.5,2.5,0,28.3-4.4,29.3-5.1Z"/><path class="cls-1" d="m328.46,213.13q-3.7,0-3.1,3.3c.3,1.8,1.2,5.3,1.9,7.8l1.4,4.4,1.2-5.5c.6-3,1.4-6.5,1.7-7.7.6-2.1.3-2.3-3.1-2.3Z"/><path class="cls-1" d="m38.46,464.13c1.7-1.8,1.7-2.1.1-4.5-2-3-3.7-3.2-6.1-.5-1.5,1.7-1.6,2.4-.7,4.5,1.4,3,4.2,3.2,6.7.5Z"/><path class="cls-1" d="m323.56,39.63c-9.4-2.8-19.9-1.3-27.6,4-6.3,4.3-7.4,9.9-3.7,18.5l1.5,3.5-.1-6.8c0-5.2.4-7.4,1.9-9.5,2.1-2.8,10.1-7.5,11.4-6.7.5.3.4,2.2-.1,4.2-1.2,5.3-1.1,11.9.3,21l1.2,7.8.8-9.5c.9-10.7,3.3-21.4,5.3-23,.8-.6,2.6-1,4.2-.8,3.2.4,3.3.8.9,11.3-.9,3.8-1.5,10.1-1.5,14l.1,7,1.3-6.5c1.7-8.3,4.2-15.6,6.7-19.8,1.8-3,2.5-3.3,5.2-2.8l3.1.6-3-2.5c-1.6-1.4-5.2-3.2-7.9-4Z"/><path class="cls-1" d="m357.76,542.23l7.2-2.1c8.4-2.5,38-13.4,42.1-15.5,3.7-2,4.7-5.2,2.3-7.6-1.9-1.8-13.3-4.5-21.9-5.1l-4-.3,4.8-3.3c6.6-4.6,9.4-5.2,17.6-4,8.5,1.2,11.8.6,13.3-2.8,1-2.1.8-2.8-.8-4.4-4-4.1-33-7.2-36.8-4.1-2.6,2.2-2.7.9-.3-3.4,2.9-5.1,10.1-10.6,20.7-15.7,11.7-5.7,13.9-7.4,16.1-12.6,1.2-2.6,1.9-6.2,1.7-8.4-.3-3.7-.4-3.8-2.8-2.5-1.4.7-12.4,5.9-24.5,11.6-37.1,17.3-44.6,21.6-56,32.2-5.5,5.1-10.1,9.9-10.3,10.5-.5,1.9,4.5,11.2,9.3,17.4,5,6.5,12.5,13.6,18.2,17.4l4.1,2.7Zm23.2-21.3c8.5-3.8,14.5-4.9,13.8-2.6-.5,1.4-30.6,13-32.2,12.5-1.3-.5,6.6-4.7,18.4-9.9Z"/><path class="cls-1" d="m447.46,681.13c-2.4-2.8-18.8-27.5-22.1-33.1l-3.2-5.7,5.7-5.9c7.1-7.3,11-15.1,12.1-23.8.8-6.7-.1-17-2-21.9-.9-2.4-1.3-2.6-6.7-2.4-3.2.2-21.7.4-41,.5l-35.3.3v40.1c0,37.6-.1,40.2-1.9,43.8l-2,3.8,8.2.6c4.5.4,12.9.7,18.6.7,8.1,0,10.1-.3,9.4-1.3-2.2-2.7-3.2-8.8-3.4-20.2l-.2-12,3.9-.3,3.9-.2,9.5,15c5.2,8.3,11.1,17,13.1,19.3l3.7,4.2h15.5c13.7,0,15.4-.2,14.2-1.5Zm-55.2-62h-8.3v-8.8c0-4.9.3-9.2.7-9.5.3-.4,4.5-.7,9.2-.7,10.3,0,14.4,1.9,15.5,7,1.5,7.9-4.4,12-17.1,12Z"/><path class="cls-1" d="m50.96,575.63v4.5h14c7.7,0,14-.3,14-.6,0-.9-6.1-9.7-8.8-12.7-2.5-2.6-3-2.7-12.3-2.7h-9.8l1.5,3.5c.7,1.9,1.4,5.5,1.4,8Z"/><path class="cls-1" d="m60.36,522.43c.4,4.5.7,8.1.9,8.1.1.1,1.2.6,2.3,1.3,1.2.6,2.5.9,2.8.6,1.2-1.2.6-19.9-.6-21.1-3.9-3.9-6.2.7-5.4,11.1Z"/><path class="cls-1" d="m73.26,474.63c0,.8.4,1.2.9.9.5-.3.6-1,.3-1.5-.9-1.3-1.2-1.1-1.2.6Z"/><path class="cls-1" d="m95.06,515.83c0-1.7.3-62.2.5-134.2.3-77.4.1-133.9-.4-138-.5-4-1-5.5-1.1-3.6,0,1.9-.4,3.2-.7,2.8-.3-.3-1.7,1.4-3,3.9l-2.4,4.5v136c0,118.4.2,136.4,1.5,138.9,1.8,3.5,2,7.4.3,6.4-.7-.4-.8-.3-.4.4,1.1,1.9,2.6,1.4,2.6-.8,0-1.4.5-1.8,1.8-1.3,1.5.6,1.5.4-.2-1.6-1.6-1.7-1.7-2.4-.7-3.4,1-.9,1.1-.8.6.5-.4,1.1-.2,1.8.4,1.8,1.4,0,1.5-2.7.1-3.5-.5-.3-1-1.1-1-1.6,0-.6.5-.7,1-.4.6.4.9.1.8-.7-.2-.7-1-1.6-1.8-2-1.2-.5-1.2-.7.3-.7,1.3-.1,1.8-.9,1.8-3.4Z"/><path class="cls-1" d="m140.36,722.93h-10.4v27.1h-6.3v-27.1h-10.4v-5.6h27.2v5.6h-.1Z"/><path class="cls-1" d="m153.96,717.43h5.6l12.4,32.7h-6.5l-3-8.1h-11.4l-3,8.1h-6.5l12.4-32.7Zm7.3,20l-4.5-12.8-4.7,12.8h9.2Z"/><path class="cls-1" d="m200.26,722.93h-10.4v27.1h-6.3v-27.1h-10.5v-5.6h27.2v5.6Z"/><path class="cls-1" d="m232.16,722.93h-10.4v27.1h-6.3v-27.1h-10.4v-5.6h27.2v5.6h-.1Z"/><path class="cls-1" d="m252.06,750.23c-2.4,0-4.6-.5-6.5-1.4s-3.6-2.2-5-3.7-2.5-3.3-3.2-5.3c-.8-2-1.2-4-1.2-6.1s.4-4.3,1.2-6.3c.8-2,1.9-3.8,3.4-5.3,1.4-1.5,3.1-2.8,5.1-3.7s4.1-1.4,6.4-1.4,4.5.5,6.5,1.4c1.9,1,3.6,2.2,5,3.8s2.5,3.3,3.2,5.3,1.2,4,1.2,6.1-.4,4.3-1.2,6.2c-.8,2-1.9,3.7-3.3,5.2s-3.1,2.7-5.1,3.6c-2.1,1.2-4.2,1.6-6.5,1.6Zm-9.5-16.5c0,1.4.2,2.8.6,4.1s1.1,2.5,1.9,3.5,1.8,1.8,3,2.4c1.2.6,2.5.9,4,.9s2.9-.3,4.1-.9c1.2-.6,2.2-1.5,3-2.5s1.4-2.2,1.8-3.5.6-2.6.6-4-.2-2.8-.7-4.1c-.4-1.3-1.1-2.5-1.9-3.5s-1.8-1.8-3-2.4c-1.2-.6-2.5-.9-4-.9s-2.9.3-4.1.9c-1.2.6-2.2,1.5-3,2.5s-1.4,2.2-1.8,3.5c-.3,1.3-.5,2.6-.5,4Z"/><path class="cls-1" d="m290.26,750.23c-2.4,0-4.6-.5-6.5-1.4s-3.6-2.2-5-3.7-2.5-3.3-3.2-5.3c-.8-2-1.2-4-1.2-6.1s.4-4.3,1.2-6.3c.8-2,1.9-3.8,3.4-5.3,1.4-1.5,3.1-2.8,5.1-3.7s4.1-1.4,6.4-1.4,4.5.5,6.5,1.4c1.9,1,3.6,2.2,5,3.8s2.5,3.3,3.2,5.3,1.2,4,1.2,6.1-.4,4.3-1.2,6.2c-.8,2-1.9,3.7-3.3,5.2s-3.1,2.7-5.1,3.6c-2,1.2-4.2,1.6-6.5,1.6Zm-9.4-16.5c0,1.4.2,2.8.6,4.1s1.1,2.5,1.9,3.5,1.8,1.8,3,2.4c1.2.6,2.5.9,4,.9s2.9-.3,4.1-.9c1.2-.6,2.2-1.5,3-2.5s1.4-2.2,1.8-3.5.6-2.6.6-4-.2-2.8-.7-4.1c-.4-1.3-1.1-2.5-1.9-3.5s-1.8-1.8-3-2.4c-1.2-.6-2.5-.9-4-.9s-2.9.3-4.1.9c-1.2.6-2.2,1.5-3,2.5s-1.4,2.2-1.8,3.5c-.3,1.3-.5,2.6-.5,4Z"/><path class="cls-1" d="m348.56,725.93c-.2-.2-.6-.5-1.2-.9s-1.3-.7-2.1-1.1c-.8-.4-1.7-.7-2.6-.9s-1.9-.4-2.9-.4c-1.7,0-3.1.3-3.9,1-.9.6-1.3,1.5-1.3,2.7,0,.7.2,1.2.5,1.7s.8.8,1.4,1.2c.6.3,1.4.6,2.3.9s2,.6,3.2.9c1.6.4,3,.9,4.3,1.4s2.4,1.1,3.3,1.8,1.6,1.6,2.1,2.6.7,2.3.7,3.8c0,1.7-.3,3.2-1,4.5-.7,1.2-1.5,2.2-2.7,3s-2.4,1.3-3.9,1.7-3,.5-4.6.5c-2.5,0-4.9-.4-7.3-1.1-2.4-.7-4.5-1.8-6.4-3.1l2.8-5.5c.3.3.8.6,1.5,1.1.7.4,1.6.9,2.6,1.3s2.1.8,3.3,1.1c1.2.3,2.4.5,3.7.5,3.5,0,5.2-1.1,5.2-3.4,0-.7-.2-1.3-.6-1.8s-1-.9-1.7-1.3c-.7-.4-1.6-.7-2.7-1-1-.3-2.2-.6-3.5-1-1.6-.4-2.9-.9-4.1-1.4s-2.1-1.1-2.9-1.8-1.3-1.5-1.7-2.4-.6-2-.6-3.2c0-1.7.3-3.1.9-4.4.6-1.3,1.5-2.4,2.6-3.2,1.1-.9,2.4-1.5,3.8-2s3-.7,4.6-.7c2.3,0,4.4.4,6.3,1.1s3.6,1.6,5.1,2.6l-2.5,5.2Z"/><path class="cls-1" d="m384.96,722.93h-10.4v27.1h-6.3v-27.1h-10.4v-5.6h27.2v5.6h-.1Z"/><path class="cls-1" d="m406.26,744.63c1.5,0,2.8-.3,3.8-.9,1-.6,1.9-1.4,2.5-2.4s1.1-2.1,1.3-3.4c.3-1.3.4-2.6.4-3.9v-16.7h6.3v16.7c0,2.2-.3,4.3-.8,6.3s-1.4,3.7-2.5,5.2-2.6,2.6-4.4,3.5-4,1.3-6.5,1.3-4.8-.5-6.6-1.4c-1.8-.9-3.3-2.1-4.4-3.6s-2-3.2-2.5-5.2-.8-4-.8-6.1v-16.7h6.3v16.7c0,1.4.1,2.7.4,4s.7,2.4,1.3,3.4c.6,1,1.4,1.8,2.5,2.4.9.5,2.2.8,3.7.8Z"/><path class="cls-1" d="m430.36,750.03v-32.7h11.9c2.7,0,5,.4,7,1.3,2,.9,3.7,2,5,3.5s2.4,3.2,3,5.2c.7,2,1,4.1,1,6.3,0,2.5-.4,4.7-1.1,6.7-.8,2-1.8,3.7-3.2,5.2-1.4,1.4-3.1,2.5-5.1,3.3s-4.2,1.2-6.6,1.2h-11.9Zm21.6-16.4c0-1.6-.2-3-.6-4.3-.4-1.3-1.1-2.5-1.9-3.4s-1.8-1.7-3.1-2.2c-1.2-.5-2.6-.8-4.1-.8h-5.5v21.5h5.5c1.6,0,3-.3,4.2-.8,1.2-.6,2.2-1.3,3-2.3s1.4-2.1,1.9-3.4c.4-1.3.6-2.7.6-4.3Z"/><path class="cls-1" d="m466.76,750.03v-32.7h6.3v32.7h-6.3Z"/><path class="cls-1" d="m497.26,750.23c-2.4,0-4.6-.5-6.5-1.4s-3.6-2.2-5-3.7-2.5-3.3-3.2-5.3c-.8-2-1.2-4-1.2-6.1s.4-4.3,1.2-6.3,1.9-3.8,3.4-5.3c1.4-1.5,3.1-2.8,5.1-3.7s4.1-1.4,6.4-1.4,4.5.5,6.5,1.4c1.9,1,3.6,2.2,5,3.8s2.5,3.3,3.2,5.3c.8,2,1.1,4,1.1,6.1s-.4,4.3-1.2,6.2c-.8,2-1.9,3.7-3.3,5.2-1.4,1.5-3.1,2.7-5.1,3.6-1.9,1.2-4.1,1.6-6.4,1.6Zm-9.4-16.5c0,1.4.2,2.8.6,4.1.4,1.3,1.1,2.5,1.9,3.5.8,1,1.8,1.8,3,2.4,1.2.6,2.5.9,4,.9s2.9-.3,4.1-.9c1.2-.6,2.2-1.5,3-2.5s1.4-2.2,1.8-3.5.6-2.6.6-4-.2-2.8-.7-4.1c-.4-1.3-1.1-2.5-1.9-3.5-.8-1-1.8-1.8-3-2.4-1.2-.6-2.5-.9-4-.9s-2.9.3-4.1.9c-1.2.6-2.2,1.5-3,2.5s-1.4,2.2-1.8,3.5-.5,2.6-.5,4Z"/></svg>