<?xml version="1.0" encoding="utf-8"?>
<!-- Generator: $$$/GeneralStr/196=Adobe Illustrator 27.6.0, SVG Export Plug-In . SVG Version: 6.00 Build 0)  -->
<svg version="1.1" id="Capa_1" xmlns="http://www.w3.org/2000/svg" xmlns:xlink="http://www.w3.org/1999/xlink" x="0px" y="0px"
	 viewBox="0 0 631.6 167.5" style="enable-background:new 0 0 631.6 167.5;" xml:space="preserve">
<path d="M248.5,28.3l4-4.3c2.1-2.3,5.5-5.9,7.4-8l3.4-3.7h-17l-16.9,0.1l-5.1,7.9l-5.1,8h14.6H248.5z"/>
<path d="M287.6,22l0.6,6.3H306h17.9v-5.8c0-3.1,0.3-6.7,0.6-8l0.6-2.2h-19.7c-18.4,0-19.7,0.1-19,1.7C286.8,15,287.3,18.6,287.6,22z
	"/>
<path d="M451.3,26l0.7,2.3h37.4h37.4l0.6-4.8c0.3-2.6,0.8-6.2,1.1-8l0.5-3.2l-39.3,0.1c-21.6,0.1-40.2,0.3-41.3,0.6
	c-3.6,0.9-3.8,2.1-0.7,6.5C449.3,21.8,450.9,24.8,451.3,26z"/>
<path d="M402.5,28.3h39.6l-3.1-3.8c-3.9-5-9.7-9-15.7-10.8c-3.6-1.1-11.5-1.4-34.1-1.4c-16.1,0-29.3,0.1-29.3,0.2
	c0,0.2,0.7,2.1,1.5,4.3s1.4,5.7,1.5,7.7v3.8H402.5z"/>
<path d="M158.2,134.1c-1.7-3-1.8-7-2.1-50.1l-0.3-46.7h-14.4h-14.5v22.5c0,13.9-0.4,22.5-1,22.5c-1,0-7.8-9-21-28.1
	c-4.7-6.7-9.6-13.4-11-14.8l-2.5-2.6l-16.2,0.3l-16.3,0.2v51.4c0,42.1-0.3,52.1-1.5,56.1c-0.8,2.7-1.2,5.1-0.9,5.4
	c0.4,0.4,27.5-3.3,33.1-4.6l2.2-0.5l-2.2-4.2c-2.1-3.8-2.2-5.6-2.5-28.1c-0.2-13.2-0.2-26.4,0-29.3l0.3-5.4l11,15.7
	c20.7,29.6,34.7,48.5,35.8,48.5c2,0,25.1-4,25.5-4.4C159.9,137.7,159.2,136,158.2,134.1z"/>
<path d="M330.2,48.8l-3.9-11l-20.6-0.3l-20.6-0.2l-12.6,38.3c-6.9,21.1-13.2,39.2-13.9,40.1c-1.2,1.7-1.8,1.2-6.4-5
	c-8.7-12-26.9-38.8-28.7-42.2c-2-3.8-2.9-2.2,11.8-20.7c4.9-6.2,7.4-10.1,6.5-10.2c-0.8-0.1-7.3-0.4-14.6-0.6L214,36.6l-6.3,7.8
	c-3.5,4.3-6.6,7.8-7,7.9c-0.5,0-0.8-3.4-0.8-7.5v-7.5h-15h-15v45.2c0,43.1-0.1,45.5-2,49.7c-1.1,2.4-1.8,4.6-1.6,4.9
	c0.5,0.4,33.9-2.6,36.3-3.3c0.8-0.3,0.5-1.6-0.9-4.4c-1.7-3.5-2-6.4-2.2-24.5c-0.1-11.3,0.1-20.6,0.5-20.6
	c0.6,0,16.4,22.8,27.8,40.2c5,7.6,4.1,7.3,17.1,5.8c4.7-0.5,16.4-1.4,26-2c9.6-0.7,17.6-1.3,17.8-1.5c0.1-0.1-0.2-1.4-0.7-2.7
	c-0.6-1.7-0.6-4,0.1-6.7l1-4.1h16.4h16.3l1.1,4.1c0.6,2.3,0.9,5.3,0.5,6.7l-0.6,2.5l13.3-0.7c15.3-0.8,17.4-1.2,18.2-3.3
	C354.8,121.4,342.1,82.4,330.2,48.8z M305.9,95.3c-12.1,0-12.1,0-11.5-2.3c0.4-1.2,3-9.5,5.8-18.5c2.8-8.9,5.4-15.9,5.7-15.5
	c0.4,0.5,3.1,8.2,6,17.3c2.9,9.1,5.5,17.1,5.8,17.7C318,95,315.2,95.3,305.9,95.3z"/>
<path d="M184.9,28.3h15v-2.8c0-1.6,0.7-5.1,1.5-7.8c0.8-2.7,1.5-5,1.5-5.2c0-0.1-8.3-0.2-18.5-0.2H166l1.9,4.2c1.1,2.4,2,6,2,8v3.8
	H184.9z"/>
<path d="M123.3,15.3c1.6,2,2.8,4.9,3.2,8l0.7,5h14.2h14.2l0.6-6c0.4-3.4,1.1-7,1.7-8c1-2,0.6-2-18.1-2h-19.1L123.3,15.3z"/>
<path d="M577.6,12.3H534l1.5,3.5c0.7,1.9,1.4,5.5,1.4,8v4.5h40.4h40.4l1.1-6.5c0.6-3.6,1.4-7.2,1.7-8C621,12.5,616,12.3,577.6,12.3z
	"/>
<path d="M591.5,51.4l24.5-0.3l1-2.5c0.5-1.3,0.9-4.4,0.9-6.9v-4.4h-40.5h-40.5v48.5c0,40.9-0.2,49.1-1.5,52.2
	c-0.8,1.9-1.5,3.7-1.5,3.8c0,0.5,6.7,1.4,21.5,3c7.7,0.8,21.9,2.3,31.5,3.4c33.5,3.9,32,4.6,32-14.4c0-13-0.1-13.3-2.3-13.9
	c-1.2-0.3-13.1-0.6-26.5-0.7l-24.2-0.1v-9.9v-9.9l23.8-0.2l23.7-0.3l0.3-10.7l0.3-10.8l-23.8-0.2l-23.8-0.3l-0.5-11.5
	c-0.3-6.3-0.2-11.9,0.3-12.5C566.6,52.2,577.1,51.7,591.5,51.4z"/>
<path d="M506.5,139c0.2-0.2-0.3-2.3-1.1-4.7c-1.2-3.5-1.5-11.2-1.5-44.5V49.5l11.7-0.1c6.4-0.1,11.9-0.3,12-0.5
	c0.2-0.2,0.1-2.9-0.3-6l-0.7-5.6h-35.9h-36l0.6,2.7c0.3,1.6,0.8,4.7,1.1,7c0.4,2.5,1.1,4,1.8,3.8c0.7-0.2,4.7-0.6,9-1l7.7-0.6V88
	c0,36.9-0.1,39.1-2,42.8c-1.2,2.3-1.6,4.1-1,4.5C473.1,136.1,505.9,139.6,506.5,139z"/>
<path d="M18.9,23.8v4.5h13.8h13.9l1-6.3c0.5-3.4,1.3-7,1.8-8c0.7-1.6-0.2-1.7-11.3-1.7c-6.6,0-13.2-0.2-14.8-0.4
	c-1.6-0.2-3.9-0.2-5.1,0.1c-2,0.4-2.1,0.6-0.7,3.8C18.3,17.7,18.9,21.3,18.9,23.8z"/>
<path d="M49,151.2c1-0.6,1-1.3-0.2-3.6c-1.2-2.3-1.5-12.1-1.7-56.6l-0.3-53.7H32.9h-14v59.5c0,32.7,0.3,59.5,0.8,59.5
	C22.2,156.3,48,151.9,49,151.2z"/>
<path d="M455.4,129.3c-2.4-2.8-18.8-27.5-22.1-33.1l-3.2-5.7l5.7-5.9c7.1-7.3,11-15.1,12.1-23.8c0.8-6.7-0.1-17-2-21.9
	c-0.9-2.4-1.3-2.6-6.7-2.4c-3.2,0.2-21.7,0.4-41,0.5l-35.3,0.3v40.1c0,37.6-0.1,40.2-1.9,43.8l-2,3.8l8.2,0.6
	c4.5,0.4,12.9,0.7,18.6,0.7c8.1,0,10.1-0.3,9.4-1.3c-2.2-2.7-3.2-8.8-3.4-20.2l-0.2-12l3.9-0.3l3.9-0.2l9.5,15
	c5.2,8.3,11.1,17,13.1,19.3l3.7,4.2h15.5C454.9,130.8,456.6,130.6,455.4,129.3z M400.2,67.3h-8.3v-8.8c0-4.9,0.3-9.2,0.7-9.5
	c0.3-0.4,4.5-0.7,9.2-0.7c10.3,0,14.4,1.9,15.5,7C418.8,63.2,412.9,67.3,400.2,67.3z"/>
<path d="M58.9,23.8v4.5h14c7.7,0,14-0.3,14-0.6c0-0.9-6.1-9.7-8.8-12.7c-2.5-2.6-3-2.7-12.3-2.7H56l1.5,3.5
	C58.2,17.7,58.9,21.3,58.9,23.8z"/>
</svg>
