<?xml version="1.0" encoding="utf-8"?>
<!-- Generator: $$$/GeneralStr/196=Adobe Illustrator 27.6.0, SVG Export Plug-In . SVG Version: 6.00 Build 0)  -->
<svg version="1.1" id="Capa_1" xmlns="http://www.w3.org/2000/svg" xmlns:xlink="http://www.w3.org/1999/xlink" x="0px" y="0px"
	 viewBox="0 0 612 198.6" style="enable-background:new 0 0 612 198.6;" xml:space="preserve">
<style type="text/css">
	.st0{stroke:#000000;stroke-miterlimit:10;}
</style>
<g>
	<g>
		<path d="M236,22.4l4-4.3c2.1-2.3,5.5-5.9,7.4-8l3.4-3.7h-17l-16.9,0.1l-5.1,7.9l-5.1,8h14.6H236z"/>
		<path d="M275.1,16.1l0.6,6.3h17.8h17.9v-5.8c0-3.1,0.3-6.7,0.6-8l0.6-2.2h-19.7c-18.4,0-19.7,0.1-19,1.7
			C274.3,9.1,274.8,12.7,275.1,16.1z"/>
		<path d="M438.8,20.1l0.7,2.3h37.4h37.4l0.6-4.8c0.3-2.6,0.8-6.2,1.1-8l0.5-3.2l-39.3,0.1c-21.6,0.1-40.2,0.3-41.3,0.6
			c-3.6,0.9-3.8,2.1-0.7,6.5C436.8,15.9,438.4,18.9,438.8,20.1z"/>
		<path d="M390,22.4h39.6l-3.1-3.8c-3.9-5-9.7-9-15.7-10.8c-3.6-1.1-11.5-1.4-34.1-1.4c-16.1,0-29.3,0.1-29.3,0.2
			c0,0.2,0.7,2.1,1.5,4.3s1.4,5.7,1.5,7.7v3.8H390z"/>
		<path d="M145.7,128.2c-1.7-3-1.8-7-2.1-50.1l-0.3-46.7h-14.4h-14.5v22.5c0,13.9-0.4,22.5-1,22.5c-1,0-7.8-9-21-28.1
			c-4.7-6.7-9.6-13.4-11-14.8l-2.5-2.6l-16.2,0.3l-16.3,0.2v51.4c0,42.1-0.3,52.1-1.5,56.1c-0.8,2.7-1.2,5.1-0.9,5.4
			c0.4,0.4,27.5-3.3,33.1-4.6l2.2-0.5l-2.2-4.2c-2.1-3.8-2.2-5.6-2.5-28.1c-0.2-13.2-0.2-26.4,0-29.3l0.3-5.4l11,15.7
			c20.7,29.6,34.7,48.5,35.8,48.5c2,0,25.1-4,25.5-4.4C147.4,131.8,146.7,130.1,145.7,128.2z"/>
		<path d="M317.7,42.9l-3.9-11l-20.6-0.3l-20.6-0.2L260,69.7c-6.9,21.1-13.2,39.2-13.9,40.1c-1.2,1.7-1.8,1.2-6.4-5
			C231,92.8,212.8,66,211,62.6c-2-3.8-2.9-2.2,11.8-20.7c4.9-6.2,7.4-10.1,6.5-10.2c-0.8-0.1-7.3-0.4-14.6-0.6l-13.2-0.4l-6.3,7.8
			c-3.5,4.3-6.6,7.8-7,7.9c-0.5,0-0.8-3.4-0.8-7.5v-7.5h-15h-15v45.2c0,43.1-0.1,45.5-2,49.7c-1.1,2.4-1.8,4.6-1.6,4.9
			c0.5,0.4,33.9-2.6,36.3-3.3c0.8-0.3,0.5-1.6-0.9-4.4c-1.7-3.5-2-6.4-2.2-24.5c-0.1-11.3,0.1-20.6,0.5-20.6
			c0.6,0,16.4,22.8,27.8,40.2c5,7.6,4.1,7.3,17.1,5.8c4.7-0.5,16.4-1.4,26-2c9.6-0.7,17.6-1.3,17.8-1.5c0.1-0.1-0.2-1.4-0.7-2.7
			c-0.6-1.7-0.6-4,0.1-6.7l1-4.1H293h16.3l1.1,4.1c0.6,2.3,0.9,5.3,0.5,6.7l-0.6,2.5l13.3-0.7c15.3-0.8,17.4-1.2,18.2-3.3
			C342.3,115.5,329.6,76.5,317.7,42.9z M293.4,89.4c-12.1,0-12.1,0-11.5-2.3c0.4-1.2,3-9.5,5.8-18.5c2.8-8.9,5.4-15.9,5.7-15.5
			c0.4,0.5,3.1,8.2,6,17.3s5.5,17.1,5.8,17.7C305.5,89.1,302.7,89.4,293.4,89.4z"/>
		<path d="M172.4,22.4h15v-2.8c0-1.6,0.7-5.1,1.5-7.8s1.5-5,1.5-5.2c0-0.1-8.3-0.2-18.5-0.2h-18.4l1.9,4.2c1.1,2.4,2,6,2,8v3.8
			H172.4z"/>
		<path d="M110.8,9.4c1.6,2,2.8,4.9,3.2,8l0.7,5h14.2h14.2l0.6-6c0.4-3.4,1.1-7,1.7-8c1-2,0.6-2-18.1-2h-19.1L110.8,9.4z"/>
		<path d="M565.1,6.4h-43.6l1.5,3.5c0.7,1.9,1.4,5.5,1.4,8v4.5h40.4h40.4l1.1-6.5c0.6-3.6,1.4-7.2,1.7-8
			C608.5,6.6,603.5,6.4,565.1,6.4z"/>
		<path d="M579,45.5l24.5-0.3l1-2.5c0.5-1.3,0.9-4.4,0.9-6.9v-4.4h-40.5h-40.5v48.5c0,40.9-0.2,49.1-1.5,52.2
			c-0.8,1.9-1.5,3.7-1.5,3.8c0,0.5,6.7,1.4,21.5,3c7.7,0.8,21.9,2.3,31.5,3.4c33.5,3.9,32,4.6,32-14.4c0-13-0.1-13.3-2.3-13.9
			c-1.2-0.3-13.1-0.6-26.5-0.7l-24.2-0.1v-9.9v-9.9l23.8-0.2l23.7-0.3l0.3-10.7l0.3-10.8l-23.8-0.2l-23.8-0.3l-0.5-11.5
			c-0.3-6.3-0.2-11.9,0.3-12.5C554.1,46.3,564.6,45.8,579,45.5z"/>
		<path d="M494,133.1c0.2-0.2-0.3-2.3-1.1-4.7c-1.2-3.5-1.5-11.2-1.5-44.5V43.6l11.7-0.1c6.4-0.1,11.9-0.3,12-0.5
			c0.2-0.2,0.1-2.9-0.3-6l-0.7-5.6h-35.9h-36l0.6,2.7c0.3,1.6,0.8,4.7,1.1,7c0.4,2.5,1.1,4,1.8,3.8s4.7-0.6,9-1l7.7-0.6v38.8
			c0,36.9-0.1,39.1-2,42.8c-1.2,2.3-1.6,4.1-1,4.5C460.6,130.2,493.4,133.7,494,133.1z"/>
		<path d="M6.4,17.9v4.5h13.8h13.9l1-6.3c0.5-3.4,1.3-7,1.8-8c0.7-1.6-0.2-1.7-11.3-1.7C19,6.4,12.4,6.2,10.8,6
			C9.2,5.8,6.9,5.8,5.7,6.1C3.7,6.5,3.6,6.7,5,9.9C5.8,11.8,6.4,15.4,6.4,17.9z"/>
		<path d="M36.5,145.3c1-0.6,1-1.3-0.2-3.6s-1.5-12.1-1.7-56.6l-0.3-53.7H20.4h-14v59.5c0,32.7,0.3,59.5,0.8,59.5
			C9.7,150.4,35.5,146,36.5,145.3z"/>
		<path d="M442.9,123.4c-2.4-2.8-18.8-27.5-22.1-33.1l-3.2-5.7l5.7-5.9c7.1-7.3,11-15.1,12.1-23.8c0.8-6.7-0.1-17-2-21.9
			c-0.9-2.4-1.3-2.6-6.7-2.4c-3.2,0.2-21.7,0.4-41,0.5l-35.3,0.3v40.1c0,37.6-0.1,40.2-1.9,43.8l-2,3.8l8.2,0.6
			c4.5,0.4,12.9,0.7,18.6,0.7c8.1,0,10.1-0.3,9.4-1.3c-2.2-2.7-3.2-8.8-3.4-20.2l-0.2-12l3.9-0.3l3.9-0.2l9.5,15
			c5.2,8.3,11.1,17,13.1,19.3l3.7,4.2h15.5C442.4,124.9,444.1,124.7,442.9,123.4z M387.7,61.4h-8.3v-8.8c0-4.9,0.3-9.2,0.7-9.5
			c0.3-0.4,4.5-0.7,9.2-0.7c10.3,0,14.4,1.9,15.5,7C406.3,57.3,400.4,61.4,387.7,61.4z"/>
		<path d="M46.4,17.9v4.5h14c7.7,0,14-0.3,14-0.6c0-0.9-6.1-9.7-8.8-12.7c-2.5-2.6-3-2.7-12.3-2.7h-9.8L45,9.9
			C45.7,11.8,46.4,15.4,46.4,17.9z"/>
		<g>
			<path class="st0" d="M135.8,165.2h-10.4v27.1H119v-27.1h-10.4v-5.6h27.2V165.2z"/>
			<path class="st0" d="M149.4,159.7h5.6l12.4,32.7h-6.5l-3-8.1h-11.4l-3,8.1h-6.5L149.4,159.7z M156.7,179.7l-4.5-12.8l-4.7,12.8
				H156.7z"/>
			<path class="st0" d="M195.6,165.2h-10.4v27.1h-6.3v-27.1h-10.4v-5.6h27.2V165.2z"/>
			<path class="st0" d="M227.6,165.2h-10.4v27.1h-6.3v-27.1h-10.4v-5.6h27.2V165.2z"/>
			<path class="st0" d="M247.5,192.6c-2.4,0-4.6-0.5-6.5-1.4c-1.9-0.9-3.6-2.2-5-3.7c-1.4-1.5-2.5-3.3-3.2-5.3c-0.8-2-1.2-4-1.2-6.1
				c0-2.2,0.4-4.3,1.2-6.3c0.8-2,1.9-3.8,3.4-5.3c1.4-1.5,3.1-2.8,5.1-3.7c2-0.9,4.1-1.4,6.4-1.4c2.4,0,4.5,0.5,6.5,1.4
				c1.9,1,3.6,2.2,5,3.8c1.4,1.6,2.5,3.3,3.2,5.3s1.2,4,1.2,6.1c0,2.2-0.4,4.3-1.2,6.2c-0.8,2-1.9,3.7-3.3,5.2
				c-1.4,1.5-3.1,2.7-5.1,3.6C251.9,192.1,249.8,192.6,247.5,192.6z M238,176c0,1.4,0.2,2.8,0.6,4.1c0.4,1.3,1.1,2.5,1.9,3.5
				c0.8,1,1.8,1.8,3,2.4c1.2,0.6,2.5,0.9,4,0.9c1.5,0,2.9-0.3,4.1-0.9c1.2-0.6,2.2-1.5,3-2.5c0.8-1,1.4-2.2,1.8-3.5s0.6-2.6,0.6-4
				c0-1.4-0.2-2.8-0.7-4.1c-0.4-1.3-1.1-2.5-1.9-3.5c-0.8-1-1.8-1.8-3-2.4c-1.2-0.6-2.5-0.9-4-0.9c-1.5,0-2.9,0.3-4.1,0.9
				c-1.2,0.6-2.2,1.5-3,2.5c-0.8,1-1.4,2.2-1.8,3.5C238.2,173.3,238,174.7,238,176z"/>
			<path class="st0" d="M285.7,192.6c-2.4,0-4.6-0.5-6.5-1.4c-1.9-0.9-3.6-2.2-5-3.7c-1.4-1.5-2.5-3.3-3.2-5.3c-0.8-2-1.2-4-1.2-6.1
				c0-2.2,0.4-4.3,1.2-6.3c0.8-2,1.9-3.8,3.4-5.3c1.4-1.5,3.1-2.8,5.1-3.7c2-0.9,4.1-1.4,6.4-1.4c2.4,0,4.5,0.5,6.5,1.4
				c1.9,1,3.6,2.2,5,3.8c1.4,1.6,2.5,3.3,3.2,5.3s1.2,4,1.2,6.1c0,2.2-0.4,4.3-1.2,6.2c-0.8,2-1.9,3.7-3.3,5.2
				c-1.4,1.5-3.1,2.7-5.1,3.6C290.1,192.1,288,192.6,285.7,192.6z M276.2,176c0,1.4,0.2,2.8,0.6,4.1c0.4,1.3,1.1,2.5,1.9,3.5
				c0.8,1,1.8,1.8,3,2.4c1.2,0.6,2.5,0.9,4,0.9c1.5,0,2.9-0.3,4.1-0.9c1.2-0.6,2.2-1.5,3-2.5c0.8-1,1.4-2.2,1.8-3.5s0.6-2.6,0.6-4
				c0-1.4-0.2-2.8-0.7-4.1c-0.4-1.3-1.1-2.5-1.9-3.5c-0.8-1-1.8-1.8-3-2.4c-1.2-0.6-2.5-0.9-4-0.9c-1.5,0-2.9,0.3-4.1,0.9
				c-1.2,0.6-2.2,1.5-3,2.5c-0.8,1-1.4,2.2-1.8,3.5C276.4,173.3,276.2,174.7,276.2,176z"/>
			<path class="st0" d="M343.9,168.2c-0.2-0.2-0.6-0.5-1.2-0.9c-0.6-0.4-1.3-0.7-2.1-1.1c-0.8-0.4-1.7-0.7-2.6-0.9
				c-0.9-0.2-1.9-0.4-2.9-0.4c-1.7,0-3.1,0.3-3.9,1c-0.9,0.6-1.3,1.5-1.3,2.7c0,0.7,0.2,1.2,0.5,1.7s0.8,0.8,1.4,1.2
				c0.6,0.3,1.4,0.6,2.3,0.9s2,0.6,3.2,0.9c1.6,0.4,3,0.9,4.3,1.4c1.3,0.5,2.4,1.1,3.3,1.8c0.9,0.7,1.6,1.6,2.1,2.6
				c0.5,1,0.7,2.3,0.7,3.8c0,1.7-0.3,3.2-1,4.5c-0.7,1.2-1.5,2.2-2.7,3s-2.4,1.3-3.9,1.7c-1.5,0.4-3,0.5-4.6,0.5
				c-2.5,0-4.9-0.4-7.3-1.1c-2.4-0.7-4.5-1.8-6.4-3.1l2.8-5.5c0.3,0.3,0.8,0.6,1.5,1.1c0.7,0.4,1.6,0.9,2.6,1.3s2.1,0.8,3.3,1.1
				c1.2,0.3,2.4,0.5,3.7,0.5c3.5,0,5.2-1.1,5.2-3.4c0-0.7-0.2-1.3-0.6-1.8c-0.4-0.5-1-0.9-1.7-1.3c-0.7-0.4-1.6-0.7-2.7-1
				c-1-0.3-2.2-0.6-3.5-1c-1.6-0.4-2.9-0.9-4.1-1.4c-1.2-0.5-2.1-1.1-2.9-1.8c-0.8-0.7-1.3-1.5-1.7-2.4s-0.6-2-0.6-3.2
				c0-1.7,0.3-3.1,0.9-4.4c0.6-1.3,1.5-2.4,2.6-3.2c1.1-0.9,2.4-1.5,3.8-2s3-0.7,4.6-0.7c2.3,0,4.4,0.4,6.3,1.1s3.6,1.6,5.1,2.6
				L343.9,168.2z"/>
			<path class="st0" d="M380.3,165.2h-10.4v27.1h-6.3v-27.1h-10.4v-5.6h27.2V165.2z"/>
			<path class="st0" d="M401.6,187c1.5,0,2.8-0.3,3.8-0.9c1-0.6,1.9-1.4,2.5-2.4c0.6-1,1.1-2.1,1.3-3.4c0.3-1.3,0.4-2.6,0.4-3.9
				v-16.7h6.3v16.7c0,2.2-0.3,4.3-0.8,6.3c-0.5,2-1.4,3.7-2.5,5.2c-1.1,1.5-2.6,2.6-4.4,3.5c-1.8,0.9-4,1.3-6.5,1.3
				c-2.6,0-4.8-0.5-6.6-1.4c-1.8-0.9-3.3-2.1-4.4-3.6c-1.1-1.5-2-3.2-2.5-5.2s-0.8-4-0.8-6.1v-16.7h6.3v16.7c0,1.4,0.1,2.7,0.4,4
				c0.3,1.3,0.7,2.4,1.3,3.4c0.6,1,1.4,1.8,2.5,2.4C398.9,186.7,400.1,187,401.6,187z"/>
			<path class="st0" d="M425.8,192.3v-32.7h11.9c2.7,0,5,0.4,7,1.3c2,0.9,3.7,2,5,3.5c1.3,1.5,2.4,3.2,3,5.2c0.7,2,1,4.1,1,6.3
				c0,2.5-0.4,4.7-1.1,6.7c-0.8,2-1.8,3.7-3.2,5.2c-1.4,1.4-3.1,2.5-5.1,3.3c-2,0.8-4.2,1.2-6.6,1.2H425.8z M447.3,176
				c0-1.6-0.2-3-0.6-4.3c-0.4-1.3-1.1-2.5-1.9-3.4s-1.8-1.7-3.1-2.2c-1.2-0.5-2.6-0.8-4.1-0.8h-5.5v21.5h5.5c1.6,0,3-0.3,4.2-0.8
				c1.2-0.6,2.2-1.3,3-2.3s1.4-2.1,1.9-3.4C447.1,178.9,447.3,177.5,447.3,176z"/>
			<path class="st0" d="M462.2,192.3v-32.7h6.3v32.7H462.2z"/>
			<path class="st0" d="M492.7,192.6c-2.4,0-4.6-0.5-6.5-1.4c-1.9-0.9-3.6-2.2-5-3.7c-1.4-1.5-2.5-3.3-3.2-5.3c-0.8-2-1.2-4-1.2-6.1
				c0-2.2,0.4-4.3,1.2-6.3c0.8-2,1.9-3.8,3.4-5.3c1.4-1.5,3.1-2.8,5.1-3.7c2-0.9,4.1-1.4,6.4-1.4c2.4,0,4.5,0.5,6.5,1.4
				c1.9,1,3.6,2.2,5,3.8c1.4,1.6,2.5,3.3,3.2,5.3c0.8,2,1.1,4,1.1,6.1c0,2.2-0.4,4.3-1.2,6.2c-0.8,2-1.9,3.7-3.3,5.2
				c-1.4,1.5-3.1,2.7-5.1,3.6C497.1,192.1,495,192.6,492.7,192.6z M483.2,176c0,1.4,0.2,2.8,0.6,4.1c0.4,1.3,1.1,2.5,1.9,3.5
				c0.8,1,1.8,1.8,3,2.4c1.2,0.6,2.5,0.9,4,0.9c1.5,0,2.9-0.3,4.1-0.9c1.2-0.6,2.2-1.5,3-2.5c0.8-1,1.4-2.2,1.8-3.5s0.6-2.6,0.6-4
				c0-1.4-0.2-2.8-0.7-4.1c-0.4-1.3-1.1-2.5-1.9-3.5c-0.8-1-1.8-1.8-3-2.4c-1.2-0.6-2.5-0.9-4-0.9c-1.5,0-2.9,0.3-4.1,0.9
				c-1.2,0.6-2.2,1.5-3,2.5s-1.4,2.2-1.8,3.5S483.2,174.7,483.2,176z"/>
		</g>
	</g>
</g>
</svg>
