<?xml version="1.0" encoding="UTF-8"?><svg id="Capa_1" xmlns="http://www.w3.org/2000/svg" viewBox="0 0 603.97 144.54"><defs><style>.cls-1{fill:#fff;}</style></defs><path class="cls-1" d="m231.94,16.54l4-4.3c2.1-2.3,5.5-5.9,7.4-8l3.4-3.7h-17l-16.9.1-5.1,7.9-5.1,8h14.6s14.7,0,14.7,0Z"/><path class="cls-1" d="m271.04,10.24l.6,6.3h35.7v-5.8c0-3.1.3-6.7.6-8l.6-2.2h-19.7c-18.4,0-19.7.1-19,1.7.4,1,.9,4.6,1.2,8Z"/><path class="cls-1" d="m434.74,14.24l.7,2.3h74.8l.6-4.8c.3-2.6.8-6.2,1.1-8l.5-3.2-39.3.1c-21.6.1-40.2.3-41.3.6-3.6.9-3.8,2.1-.7,6.5,1.6,2.3,3.2,5.3,3.6,6.5Z"/><path class="cls-1" d="m385.94,16.54h39.6l-3.1-3.8c-3.9-5-9.7-9-15.7-10.8-3.6-1.1-11.5-1.4-34.1-1.4-16.1,0-29.3.1-29.3.2,0,.2.7,2.1,1.5,4.3s1.4,5.7,1.5,7.7v3.8h39.6Z"/><path class="cls-1" d="m141.64,122.34c-1.7-3-1.8-7-2.1-50.1l-.3-46.7h-28.9v22.5c0,13.9-.4,22.5-1,22.5-1,0-7.8-9-21-28.1-4.7-6.7-9.6-13.4-11-14.8l-2.5-2.6-16.2.3-16.3.2v51.4c0,42.1-.3,52.1-1.5,56.1-.8,2.7-1.2,5.1-.9,5.4.4.4,27.5-3.3,33.1-4.6l2.2-.5-2.2-4.2c-2.1-3.8-2.2-5.6-2.5-28.1-.2-13.2-.2-26.4,0-29.3l.3-5.4,11,15.7c20.7,29.6,34.7,48.5,35.8,48.5,2,0,25.1-4,25.5-4.4.2-.2-.5-1.9-1.5-3.8Z"/><path class="cls-1" d="m313.64,37.04l-3.9-11-20.6-.3-20.6-.2-12.6,38.3c-6.9,21.1-13.2,39.2-13.9,40.1-1.2,1.7-1.8,1.2-6.4-5-8.7-12-26.9-38.8-28.7-42.2-2-3.8-2.9-2.2,11.8-20.7,4.9-6.2,7.4-10.1,6.5-10.2-.8-.1-7.3-.4-14.6-.6l-13.2-.4-6.3,7.8c-3.5,4.3-6.6,7.8-7,7.9-.5,0-.8-3.4-.8-7.5v-7.5h-30v45.2c0,43.1-.1,45.5-2,49.7-1.1,2.4-1.8,4.6-1.6,4.9.5.4,33.9-2.6,36.3-3.3.8-.3.5-1.6-.9-4.4-1.7-3.5-2-6.4-2.2-24.5-.1-11.3.1-20.6.5-20.6.6,0,16.4,22.8,27.8,40.2,5,7.6,4.1,7.3,17.1,5.8,4.7-.5,16.4-1.4,26-2,9.6-.7,17.6-1.3,17.8-1.5.1-.1-.2-1.4-.7-2.7-.6-1.7-.6-4,.1-6.7l1-4.1h32.7l1.1,4.1c.6,2.3.9,5.3.5,6.7l-.6,2.5,13.3-.7c15.3-.8,17.4-1.2,18.2-3.3.5-1.2-12.2-40.2-24.1-73.8Zm-24.3,46.5q-12.1,0-11.5-2.3c.4-1.2,3-9.5,5.8-18.5,2.8-8.9,5.4-15.9,5.7-15.5.4.5,3.1,8.2,6,17.3,2.9,9.1,5.5,17.1,5.8,17.7.3,1-2.5,1.3-11.8,1.3Z"/><path class="cls-1" d="m168.34,16.54h15v-2.8c0-1.6.7-5.1,1.5-7.8.8-2.7,1.5-5,1.5-5.2,0-.1-8.3-.2-18.5-.2h-18.4l1.9,4.2c1.1,2.4,2,6,2,8v3.8h15Z"/><path class="cls-1" d="m106.74,3.54c1.6,2,2.8,4.9,3.2,8l.7,5h28.4l.6-6c.4-3.4,1.1-7,1.7-8,1-2,.6-2-18.1-2h-19.1l2.6,3Z"/><path class="cls-1" d="m561.04.54h-43.6l1.5,3.5c.7,1.9,1.4,5.5,1.4,8v4.5h80.8l1.1-6.5c.6-3.6,1.4-7.2,1.7-8,.5-1.3-4.5-1.5-42.9-1.5Z"/><path class="cls-1" d="m574.94,39.64l24.5-.3,1-2.5c.5-1.3.9-4.4.9-6.9v-4.4h-81v48.5c0,40.9-.2,49.1-1.5,52.2-.8,1.9-1.5,3.7-1.5,3.8,0,.5,6.7,1.4,21.5,3,7.7.8,21.9,2.3,31.5,3.4,33.5,3.9,32,4.6,32-14.4,0-13-.1-13.3-2.3-13.9-1.2-.3-13.1-.6-26.5-.7l-24.2-.1v-19.8l23.8-.2,23.7-.3.3-10.7.3-10.8-23.8-.2-23.8-.3-.5-11.5c-.3-6.3-.2-11.9.3-12.5.4-.6,10.9-1.1,25.3-1.4Z"/><path class="cls-1" d="m489.94,127.24c.2-.2-.3-2.3-1.1-4.7-1.2-3.5-1.5-11.2-1.5-44.5v-40.3l11.7-.1c6.4-.1,11.9-.3,12-.5.2-.2.1-2.9-.3-6l-.7-5.6h-71.9l.6,2.7c.3,1.6.8,4.7,1.1,7,.4,2.5,1.1,4,1.8,3.8.7-.2,4.7-.6,9-1l7.7-.6v38.8c0,36.9-.1,39.1-2,42.8-1.2,2.3-1.6,4.1-1,4.5,1.2.8,34,4.3,34.6,3.7Z"/><path class="cls-1" d="m2.34,12.04v4.5h27.7l1-6.3c.5-3.4,1.3-7,1.8-8,.7-1.6-.2-1.7-11.3-1.7-6.6,0-13.2-.2-14.8-.4C5.14-.06,2.84-.06,1.64.24-.36.64-.46.84.94,4.04c.8,1.9,1.4,5.5,1.4,8Z"/><path class="cls-1" d="m32.44,139.44c1-.6,1-1.3-.2-3.6s-1.5-12.1-1.7-56.6l-.3-53.7H2.34v59.5c0,32.7.3,59.5.8,59.5,2.5,0,28.3-4.4,29.3-5.1Z"/><path class="cls-1" d="m438.84,117.54c-2.4-2.8-18.8-27.5-22.1-33.1l-3.2-5.7,5.7-5.9c7.1-7.3,11-15.1,12.1-23.8.8-6.7-.1-17-2-21.9-.9-2.4-1.3-2.6-6.7-2.4-3.2.2-21.7.4-41,.5l-35.3.3v40.1c0,37.6-.1,40.2-1.9,43.8l-2,3.8,8.2.6c4.5.4,12.9.7,18.6.7,8.1,0,10.1-.3,9.4-1.3-2.2-2.7-3.2-8.8-3.4-20.2l-.2-12,3.9-.3,3.9-.2,9.5,15c5.2,8.3,11.1,17,13.1,19.3l3.7,4.2h15.5c13.7,0,15.4-.2,14.2-1.5Zm-55.2-62h-8.3v-8.8c0-4.9.3-9.2.7-9.5.3-.4,4.5-.7,9.2-.7,10.3,0,14.4,1.9,15.5,7,1.5,7.9-4.4,12-17.1,12Z"/><path class="cls-1" d="m42.34,12.04v4.5h14c7.7,0,14-.3,14-.6,0-.9-6.1-9.7-8.8-12.7-2.5-2.6-3-2.7-12.3-2.7h-9.8l1.5,3.5c.7,1.9,1.4,5.5,1.4,8Z"/></svg>